<?xml version="1.0" encoding="UTF-8"?><svg xmlns="http://www.w3.org/2000/svg" viewBox="0 0 520 10"><defs><style>.e{fill:#fd803b;}</style></defs><g id="a"/><g id="b"><path class="e" d="M509.6,8.66c-3.17,0-4.87-1.24-6.24-2.23-1.19-.87-2.14-1.56-4.16-1.56s-2.97,.69-4.16,1.56c-1.36,1-3.06,2.23-6.24,2.23s-4.87-1.24-6.24-2.23c-1.19-.87-2.14-1.56-4.16-1.56s-2.97,.69-4.16,1.56c-1.36,1-3.06,2.23-6.24,2.23s-4.87-1.24-6.24-2.23c-1.19-.87-2.14-1.56-4.16-1.56s-2.97,.69-4.16,1.56c-1.36,1-3.06,2.23-6.24,2.23s-4.87-1.24-6.24-2.23c-1.19-.87-2.14-1.56-4.16-1.56s-2.97,.69-4.16,1.56c-1.37,1-3.06,2.23-6.24,2.23s-4.87-1.24-6.24-2.23c-1.19-.87-2.14-1.56-4.16-1.56s-2.97,.69-4.16,1.56c-1.36,1-3.06,2.23-6.24,2.23s-4.87-1.24-6.24-2.23c-1.19-.87-2.14-1.56-4.16-1.56s-2.97,.69-4.16,1.56c-1.36,1-3.06,2.23-6.24,2.23s-4.87-1.24-6.24-2.23c-1.19-.87-2.14-1.56-4.16-1.56s-2.97,.69-4.16,1.56c-1.36,1-3.06,2.23-6.24,2.23s-4.87-1.24-6.24-2.23c-1.19-.87-2.14-1.56-4.16-1.56s-2.97,.69-4.16,1.56c-1.36,1-3.06,2.23-6.24,2.23s-4.87-1.24-6.24-2.23c-1.19-.87-2.14-1.56-4.16-1.56s-2.97,.69-4.16,1.56c-1.36,1-3.06,2.23-6.24,2.23s-4.87-1.24-6.24-2.23c-1.19-.87-2.14-1.56-4.16-1.56s-2.97,.69-4.16,1.56c-1.36,1-3.06,2.23-6.24,2.23s-4.87-1.24-6.24-2.23c-1.19-.87-2.14-1.56-4.16-1.56s-2.97,.69-4.16,1.56c-1.36,1-3.06,2.23-6.24,2.23s-4.87-1.24-6.24-2.23c-1.19-.87-2.14-1.56-4.16-1.56s-2.97,.69-4.16,1.56c-1.36,1-3.06,2.23-6.24,2.23s-4.87-1.24-6.24-2.23c-1.19-.87-2.14-1.56-4.16-1.56s-2.97,.69-4.16,1.56c-1.36,1-3.06,2.23-6.24,2.23s-4.87-1.24-6.24-2.23c-1.19-.87-2.14-1.56-4.16-1.56s-2.97,.69-4.16,1.56c-1.36,1-3.06,2.23-6.24,2.23s-4.87-1.24-6.24-2.23c-1.19-.87-2.14-1.56-4.16-1.56s-2.97,.69-4.16,1.56c-1.36,1-3.06,2.23-6.24,2.23s-4.87-1.24-6.24-2.23c-1.19-.87-2.14-1.56-4.16-1.56s-2.97,.69-4.16,1.56c-1.36,1-3.06,2.23-6.24,2.23s-4.87-1.24-6.24-2.23c-1.19-.87-2.14-1.56-4.16-1.56s-2.97,.69-4.16,1.56c-1.36,1-3.06,2.23-6.24,2.23s-4.87-1.24-6.24-2.23c-1.19-.87-2.14-1.56-4.16-1.56s-2.97,.69-4.16,1.56c-1.36,1-3.06,2.23-6.24,2.23s-4.87-1.24-6.24-2.23c-1.19-.87-2.14-1.56-4.16-1.56s-2.97,.69-4.16,1.56c-1.36,1-3.06,2.23-6.24,2.23s-4.87-1.24-6.24-2.23c-1.19-.87-2.14-1.56-4.16-1.56s-2.97,.69-4.16,1.56c-1.36,1-3.06,2.23-6.24,2.23s-4.87-1.24-6.24-2.23c-1.19-.87-2.14-1.56-4.16-1.56s-2.97,.69-4.16,1.56c-1.36,1-3.06,2.23-6.24,2.23s-4.87-1.24-6.24-2.23c-1.19-.87-2.14-1.56-4.16-1.56s-2.97,.69-4.16,1.56c-1.36,1-3.06,2.23-6.24,2.23s-4.87-1.24-6.24-2.23c-1.19-.87-2.14-1.56-4.16-1.56s-2.97,.69-4.16,1.56c-1.36,1-3.06,2.23-6.24,2.23s-4.87-1.24-6.24-2.23c-1.19-.87-2.14-1.56-4.16-1.56s-2.97,.69-4.16,1.56c-1.36,1-3.06,2.23-6.24,2.23s-4.87-1.24-6.24-2.23C2.97,5.55,2.03,4.86,0,4.86V1.34c3.17,0,4.87,1.24,6.24,2.23,1.19,.87,2.14,1.56,4.16,1.56s2.97-.69,4.16-1.56c1.36-1,3.06-2.23,6.24-2.23s4.87,1.24,6.24,2.23c1.19,.87,2.14,1.56,4.16,1.56s2.97-.69,4.16-1.56c1.36-1,3.06-2.23,6.24-2.23s4.87,1.24,6.24,2.23c1.19,.87,2.14,1.56,4.16,1.56s2.97-.69,4.16-1.56c1.36-1,3.06-2.23,6.24-2.23s4.87,1.24,6.24,2.23c1.19,.87,2.14,1.56,4.16,1.56s2.97-.69,4.16-1.56c1.36-1,3.06-2.23,6.24-2.23s4.87,1.24,6.24,2.23c1.19,.87,2.14,1.56,4.16,1.56s2.97-.69,4.16-1.56c1.36-1,3.06-2.23,6.24-2.23s4.87,1.24,6.24,2.23c1.19,.87,2.14,1.56,4.16,1.56s2.97-.69,4.16-1.56c1.36-1,3.06-2.23,6.24-2.23s4.87,1.24,6.24,2.23c1.19,.87,2.14,1.56,4.16,1.56s2.97-.69,4.16-1.56c1.36-1,3.06-2.23,6.24-2.23s4.87,1.24,6.24,2.23c1.19,.87,2.14,1.56,4.16,1.56s2.97-.69,4.16-1.56c1.36-1,3.06-2.23,6.24-2.23s4.87,1.24,6.24,2.23c1.19,.87,2.14,1.56,4.16,1.56s2.97-.69,4.16-1.56c1.36-1,3.06-2.23,6.24-2.23s4.87,1.24,6.24,2.23c1.19,.87,2.14,1.56,4.16,1.56s2.97-.69,4.16-1.56c1.36-1,3.06-2.23,6.24-2.23s4.87,1.24,6.24,2.23c1.19,.87,2.14,1.56,4.16,1.56s2.97-.69,4.16-1.56c1.36-1,3.06-2.23,6.24-2.23s4.87,1.24,6.24,2.23c1.19,.87,2.14,1.56,4.16,1.56s2.97-.69,4.16-1.56c1.36-1,3.06-2.23,6.24-2.23s4.87,1.24,6.24,2.23c1.19,.87,2.14,1.56,4.16,1.56s2.97-.69,4.16-1.56c1.36-1,3.06-2.23,6.24-2.23s4.87,1.24,6.24,2.23c1.19,.87,2.14,1.56,4.16,1.56s2.97-.69,4.16-1.56c1.36-1,3.06-2.23,6.24-2.23s4.87,1.24,6.24,2.23c1.19,.87,2.14,1.56,4.16,1.56s2.97-.69,4.16-1.56c1.36-1,3.06-2.23,6.24-2.23s4.87,1.24,6.24,2.23c1.19,.87,2.14,1.56,4.16,1.56s2.97-.69,4.16-1.56c1.36-1,3.06-2.23,6.24-2.23s4.87,1.24,6.24,2.23c1.19,.87,2.14,1.56,4.16,1.56s2.97-.69,4.16-1.56c1.36-1,3.06-2.23,6.24-2.23s4.87,1.24,6.24,2.23c1.19,.87,2.14,1.56,4.16,1.56s2.97-.69,4.16-1.56c1.36-1,3.06-2.23,6.24-2.23s4.87,1.24,6.24,2.23c1.19,.87,2.14,1.56,4.16,1.56s2.97-.69,4.16-1.56c1.36-1,3.06-2.23,6.24-2.23s4.87,1.24,6.24,2.23c1.19,.87,2.14,1.56,4.16,1.56s2.97-.69,4.16-1.56c1.36-1,3.06-2.23,6.24-2.23s4.87,1.24,6.24,2.23c1.19,.87,2.14,1.56,4.16,1.56s2.97-.69,4.16-1.56c1.37-1,3.06-2.23,6.24-2.23s4.87,1.24,6.24,2.23c1.19,.87,2.14,1.56,4.16,1.56s2.97-.69,4.16-1.56c1.36-1,3.06-2.23,6.24-2.23s4.87,1.24,6.24,2.23c1.19,.87,2.14,1.56,4.16,1.56s2.97-.69,4.16-1.56c1.37-1,3.06-2.23,6.24-2.23s4.87,1.24,6.24,2.23c1.19,.87,2.14,1.56,4.16,1.56s2.97-.69,4.16-1.56c1.37-1,3.06-2.23,6.24-2.23s4.87,1.24,6.24,2.23c1.19,.87,2.14,1.56,4.16,1.56s2.97-.69,4.16-1.56c1.37-.99,3.06-2.23,6.24-2.23v3.52c-2.03,0-2.97,.69-4.16,1.56-1.37,.99-3.06,2.23-6.24,2.23Z"/></g><g id="c"/><g id="d"/></svg>