<svg id="visual" viewBox="0 0 900 600" width="900" height="600" xmlns="http://www.w3.org/2000/svg" xmlns:xlink="http://www.w3.org/1999/xlink" version="1.1"><rect x="0" y="0" width="900" height="600" fill="#001220"></rect><defs><linearGradient id="grad1_0" x1="33.3%" y1="0%" x2="100%" y2="100%"><stop offset="20%" stop-color="#001220" stop-opacity="1"></stop><stop offset="80%" stop-color="#001220" stop-opacity="1"></stop></linearGradient></defs><defs><linearGradient id="grad2_0" x1="0%" y1="0%" x2="66.7%" y2="100%"><stop offset="20%" stop-color="#001220" stop-opacity="1"></stop><stop offset="80%" stop-color="#001220" stop-opacity="1"></stop></linearGradient></defs><g transform="translate(900, 0)"><path d="M0 378.6C-37.9 345.2 -75.7 311.9 -123.6 298.4C-171.5 284.9 -229.4 291.3 -267.7 267.7C-306 244.1 -324.8 190.4 -340 140.8C-355.2 91.2 -366.9 45.6 -378.6 0L0 0Z" fill="#14463D"></path></g><g transform="translate(0, 600)"><path d="M0 -378.6C39.9 -351.4 79.7 -324.2 128.6 -310.4C177.4 -296.6 235.2 -296.2 267.7 -267.7C300.2 -239.2 307.3 -182.5 321.5 -133.2C335.8 -83.9 357.2 -41.9 378.6 0L0 0Z" fill="#14463D"></path></g></svg>