<svg xmlns="http://www.w3.org/2000/svg" viewBox="0 0 500 304.6086"><path d="M367.4527,304.6086C440.54,304.6086,500,245.1483,500,172.0613A132.3208,132.3208,0,0,0,452.5343,70.5005l-.0116-.01h0L405.43,30.9846l-.0116-.01A131.9515,131.9515,0,0,0,320.3516,0H132.5425a132.4911,132.4911,0,0,0-85.09,234.09l.0116.01,47.0678,39.5037.0117.01.0116.01a131.9562,131.9562,0,0,0,85.0817,30.9857Z" fill="#13463d"/><path d="M320.3516,11.3107H132.5425a121.2314,121.2314,0,1,0,0,242.4628H320.3516a121.2314,121.2314,0,1,0,0-242.4628Z" fill="#fccc43"/><path d="M320.3516,0H132.5425C59.4581,0,0,59.4581,0,132.5425S59.4581,265.0842,132.5425,265.0842H320.3516c73.0844,0,132.5426-59.4581,132.5426-132.5425S393.436,0,320.3516,0Zm0,253.7735H132.5425a121.2314,121.2314,0,1,1,0-242.4628H320.3516a121.2314,121.2314,0,1,1,0,242.4628Z" fill="#14463d"/><path d="M227.1855,154.6464c25.1763,0,42.7593-18.0363,42.7593-43.86,0-25.8321-17.583-43.8683-42.7593-43.8683-25.1115,0-42.6459,18.0362-42.6459,43.8683C184.54,136.61,202.074,154.6464,227.1855,154.6464Zm0-65.3044c11.4306,0,19.1049,8.6214,19.1049,21.4443,0,12.8956-7.6743,21.5577-19.1049,21.5577-11.3658,0-19.0077-8.6621-19.0077-21.5577C208.1778,97.9634,215.82,89.342,227.1855,89.342Z" fill="#14463d"/><path d="M265.27,163.6962a32.1155,32.1155,0,0,0-4.8456-.3558c-12.0943,0-18.4572,6.12-23.12,10.5969-3.9343,3.7805-5.6991,5.3187-10.0057,5.3187s-6.0877-1.5382-10.022-5.3269c-4.6629-4.4687-11.042-10.5887-23.1526-10.5887a32.2612,32.2612,0,0,0-4.92.3654c-4.518.696-4.6645.8745-4.6645,5.4456l0,8.0251c0,5.975.9765,6.75,6.7888,5.3647a11.9556,11.9556,0,0,1,2.796-.29c4.3228,0,6.1038,1.5382,10.0543,5.3269,4.6467,4.4683,11.0258,10.5883,23.12,10.5883s18.4572-6.12,23.12-10.5965c3.9343-3.7805,5.699-5.3187,10.0057-5.3187a11.9341,11.9341,0,0,1,2.7482.2813c5.81,1.3652,6.7719.6,6.7719-5.3688v-8.02C269.9448,164.5754,269.7862,164.3833,265.27,163.6962Z" fill="#14463d"/><path d="M171.4932,67.4764H154.3247c-3.2178,0-3.47.2519-3.47,3.47V115.93c0,3.2177-.2519,3.47-3.47,3.47H128.355c-3.2178,0-3.47-.2519-3.47-3.47V70.946c0-3.2177-.2518-3.47-3.47-3.47H104.2472c-3.2177,0-3.47.2519-3.47,3.47V193.4423c0,3.2177.2518,3.47,3.47,3.47h17.1687c3.2177,0,3.47-.2519,3.47-3.47V145.4956c0-3.2177.2518-3.47,3.47-3.47h19.0305c3.2177,0,3.47.2519,3.47,3.47v47.9467c0,3.2177.2518,3.47,3.47,3.47h17.1685c3.2178,0,3.47-.2519,3.47-3.47V70.946C174.9628,67.7283,174.711,67.4764,171.4932,67.4764Z" fill="#14463d"/><path d="M317.7312,67.4764h-34.74c-3.2178,0-3.47.2519-3.47,3.47V193.4423c0,3.2177.2518,3.47,3.47,3.47h34.74c39.6831,0,64.5356-25.5891,64.5356-64.7137C382.2668,92.8877,357.22,67.4764,317.7312,67.4764Zm-.5667,107.1817H307.0989c-3.2178,0-3.47-.2519-3.47-3.47V93.2c0-3.2177.2518-3.47,3.47-3.47h10.0656c25.7755,0,39.6832,17.8013,39.6832,42.4677C356.8477,156.8564,342.94,174.6581,317.1645,174.6581Z" fill="#14463d"/></svg>