<svg xmlns="http://www.w3.org/2000/svg" viewBox="0 0 500 586.7558"><path d="M0,310.4127c0,23.4451,7.4372,45.4005,22.1066,65.2835,12.4871,16.9361,33.04,29.91,53.0762,41.2321,7.8613,4.4425,7.4669,8.4494-1.1119,11.2672l-.0117.0038-2.0293.6693c-7.869,2.6014-15.4681,5.3431-22.0094,10.2329-11.388,8.4735-15.9215,22.506-13.849,42.8855,1.6191,15.9431,7.2537,32.0589,12.5429,45.7136a147.5244,147.5244,0,0,0,22.97,39.69c3.4541,4.3069,8.29,9.6177,14.9932,12.3594a28.3769,28.3769,0,0,0,10.6862,2.0941,27.1759,27.1759,0,0,0,10.1142-1.9322c3.6485-1.4788,6.2067-3.616,7.6208-6.3686,4.091-7.9661-1.5652-16.6339-5.6994-22.97a38.6094,38.6094,0,0,1-3.1735-5.3215,206.9243,206.9243,0,0,1-8.5706-24.1251,89.3207,89.3207,0,0,1-3.6791-29.9883c.5193-8.4919.8807-8.8667,9.3719-9.3981l.0043,0,.0466-.0029c18.3937-1.1129,33.3584-4.2,46.4356-9.4759a91.8947,91.8947,0,0,0,19.0146-10.3264,22.6833,22.6833,0,0,1,8.5726-3.4678,98.3218,98.3218,0,0,0,11.2666-2.8171c11.6431-3.6372,15.5557,2.0264,8.0339,11.6292h0l-.06.0774-1.2434,1.6017c-5.1056,6.5736-9.8983,13.0934-12.6076,20.7573-4.75,13.3848-.7017,27.5684,12.3594,43.3388,10.2437,12.381,23.866,22.6247,35.8368,31.0118a148.0409,148.0409,0,0,0,41.1584,20.2068,45.9482,45.9482,0,0,0,13.7734,2.4827,27.7376,27.7376,0,0,0,22.9486-11.9924c2.2344-3.303,3.1519-6.4118,2.7957-9.5205-1.0363-8.8945-10.5568-12.9531-17.5083-15.9107a40.647,40.647,0,0,1-5.6022-2.6554,208.44,208.44,0,0,1-20.5522-15.2954,90.0028,90.0028,0,0,1-19.3323-22.1849c-4.7466-7.9181-4.6425-8.5128,2.6934-14.1174l.0052-.004.0419-.0319c14.12-10.7352,24.8532-21.6325,32.7832-33.2954,12.5752-18.5013,19.2245-40.705,19.2245-64.2257a110.8029,110.8029,0,0,0-.6261-11.7765,81.6979,81.6979,0,0,0-1.3018-8.4021c-2.0225-9.5594-2.2681-8.5952,4.007-16.085l.0042-.005.7771-.9283c10.0711-12.0139,20.11-23.9847,32.8037-31.6594,9.6393-5.8181,20.563-7.4157,32.1344-9.1a177.4212,177.4212,0,0,0,18.9655-3.4649c11.4419-2.9576,26.3595-8.9592,32.469-20.8,4.1018-7.9446,4.7063-20.4767-1.414-27.72-4.0694-4.8034-10.6647-5.667-17.1736-2.18-1.6839.9067-3.3355,1.8458-4.9762,2.7849-4.879,2.7957-9.4881,5.44-14.529,6.5413-5.8008,1.27-11.741,1.4347-18.024,1.5854l-.1134.003-5.1139.1485-.0638.002a133.3558,133.3558,0,0,1-18.5018-.26c-7.6035-.83-8.7521-4.8614-8.711-18.2731,0-.038,0-.0312,0-.0693v-1.5082c0-10.6539,4.1558-24.2222,12.694-41.4822,1.4755-2.9839,1.9241-3.7063,3.9618-3.3056,21.2918,4.1869,41.559,12.5029,61.3809,21.3325l4.0791,1.8171.0782.035c4.7373,2.1318,9.6367,4.3354,15.0944,5.39a44.7847,44.7847,0,0,0,8.3439.7232,109.4937,109.4937,0,0,0,11.4851-.788c8.7-.9067,17.7025-1.8566,26.5754-4.1665,4.512-1.1658,9.704-2.8713,13.9137-6.6925,4.029-3.6484,4.76-8.8166,6.0772-13.4914,1.1857-4.2094,5.6993-9.09-48.1746-68.318-.1133-.1246,11.1408-11.8456,12.233-13.0182,5.2855-5.6742,10.539-11.3792,15.7033-17.1642,4.2438-4.7539,8.4259-9.5635,12.4413-14.5148a41.5147,41.5147,0,0,0,6.0909-9.5382,53.5064,53.5064,0,0,0,3.3356-10.8226c.8888-4.521,1.4529-10.7343-2.59-13.9882-2.6985-2.18-5.8936-2.623-8.02-2.9144-11.7009-1.63-45.8539-2.4935-51.24-2.1481-6.0565.3981-11.7377,1.9647-17.236,3.4818l-.1127.0308-2.8421.7684-.033.0089c-20.9142,5.6206-43.0254,8.2213-64.4138,10.7465a4.1687,4.1687,0,0,1-3.2416-1.0027c-8.3618-7.2676-16.6413-13.8164-25.7948-20.9528-9.3262-7.2753-18.1451-14.1512-26.2084-21.3078-12.23-10.859-24.9887-21.4049-37.92-31.3248-2.6662-2.0509-6.7249-4.35-10.9454-3.6053a9.0866,9.0866,0,0,0-6.12,4.1018c-2.1481,3.2815-2.0078,7.1674-1.5868,10.5352.27,2.2344,19.6131,84.0223,34.6387,121.489l.0823.1387c.6254,1.0532.6129.9256.1936,2.0765-.83,2.2794-1.73,4.5329-2.4024,6.8628-2.0293,6.9946-3.5405,14.162-5.0085,21.0811-.6476,3.0548-1.2953,6.12-1.9861,9.1643-.9013,3.3638-8.9308,17.0517-21.9049,36.13-2.0661,3.0381-5.8415,4.8186-9.3669,3.7839-7.6783-2.2537-19.5831.7433-24.61,8.5738a15.1716,15.1716,0,0,0-2.3208,8.5058,32.474,32.474,0,0,0,1.5611,9.41,22.84,22.84,0,0,1-3.7252,21.3123c-7.3553,9.0163-12.0249,14.7009-23.2563,26.94-13.2661,14.4535-32.9116,29.9648-51.2834,40.5-14.3887,8.2468-31.5191,13.169-45.8323,13.169-21.9231,0-34.9085-11.6578-38.06-23.2184a73.0668,73.0668,0,0,1-2.4935-19.2461c0-23.6933,9.51-38.924,15.8027-49.0058,2.629-4.2126,4.5454-7.279,5.2845-10.2091a1.6449,1.6449,0,0,0,.0672-.3721l.0152-.1387c.564-5.1353.75-4.5135-2.5431-8.4944a12.906,12.906,0,0,0-9.9156-4.7489C40.5323,228.4845,0,261.5688,0,310.4127ZM56.6265,447.9636c5.2161-3.89,11.8848-6.2854,18.8459-8.592l.0657-.0217,1.9753-.6478c6.8813-2.26,13.4523-4.5443,19.7534-9.4395a42.4536,42.4536,0,0,0,4.3879-3.8886c.1942-.2.3939-.3158.5882-.5209,1.1145-1.1846,2.0482-2.4961,3.044-3.7685a50.5527,50.5527,0,0,0,10.5352-24.1777c.2159-1.576.3238-3.2491.421-4.9438.2266-3.6916.4425-7.1673,1.8889-9.5637,2.9469-4.9005,8.5815-9.5421,12.5645-12.6076a167.9285,167.9285,0,0,1,21.2107-13.9246,30.1338,30.1338,0,0,1,14.637-3.81,33.5329,33.5329,0,0,1,17.8752,5.4187,43.367,43.367,0,0,1,17.7052,22.854,38.6324,38.6324,0,0,1,2.0024,11.7037c.0108.8338.0944,1.6677.0458,2.4988a36.7621,36.7621,0,0,1-1.7513,8.9539,64.1622,64.1622,0,0,1-3.8077,9.0779c-.2914.5829-.5154,1.1226-.8311,1.7217a98.3544,98.3544,0,0,1-5.43,9.1319,106.4955,106.4955,0,0,1-23.4667,25.0075,99.8394,99.8394,0,0,1-8.3952,5.94c-2.7417,1.7-5.6319,3.0952-8.5167,4.5133-2.1021,1.0322-4.1126,2.2519-6.2849,3.129-11.9409,4.8217-25.7683,7.66-42.29,8.6549l-.07.0043-11.1308.7052c-2.5439.1611-2.0674.0369-4.3661,1.1384a7.15,7.15,0,0,0-2.882,4.4148c-3.4758,14.3563-2.7741,30.267,2.0833,47.2463a217.137,217.137,0,0,0,9.0239,25.42,50.61,50.61,0,0,0,4.0911,7.0271c1.6765,2.5727,4.1713,6.3895,5.0308,9.1788.8121,2.6356.7248,2.8253-1.832,3.8591l-.0038.0015a16.9056,16.9056,0,0,1-12.4781-.14c-4.3393-1.77-7.7718-5.57-10.5567-9.0456a137.3267,137.3267,0,0,1-21.297-36.7651C53.9927,510.7428,48.66,495.5014,47.16,480.8644,45.4977,464.468,48.5093,454.0083,56.6265,447.9636Zm35.4513-34.29C69.771,401.3644,44.483,387.408,31.001,369.1333c-13.2337-17.94-19.9477-37.6934-19.9477-58.7206,0-41.73,35.5562-70.6806,42.9394-70.8749a1.655,1.655,0,0,1,1.09.4354c.3122.2726.313.2779.1339.6517-.7224,1.5076-2.1816,3.8412-3.5018,5.9615-6.5414,10.4812-17.4867,28.0111-17.4867,54.8671a84.1505,84.1505,0,0,0,2.8821,22.1606c4.2529,15.6084,20.9731,31.3572,48.7251,31.3572,16.159,0,35.3511-5.4727,51.3374-14.637,19.2785-11.0533,39.9386-27.3849,53.9171-42.6156,9.9928-10.89,8.1207-9.0084,12.0886-13.6228,9.053-10.5282,22.3508-9.521,29.8683,2.1532,6.5375,10.1522,8.1,18.0114-3.1084,27.974a5.5282,5.5282,0,0,0,7.34,8.2684c6.4577-5.7453,9.696-11.3826,11.0506-16.7527,2.5124-9.9577-1.7567-18.9466-6.1176-25.68a216.7387,216.7387,0,0,1-14.5961-25.5055c-.0587-.124-.0482-.1021-.1083-.2254l-.0293-.06-.0388-.0792L225.5238,250.3c-.259-.5209-.5235-1.0741-.7853-1.6084-.9121-1.84-1.7864-3.724-2.596-5.6373-1.5166-3.5864-2.6985-7.2011-2.7174-10.5324a4.3328,4.3328,0,0,1,.5613-2.4611c2.0293-3.1411,8.5706-4.9222,12.1867-3.9615a10.8146,10.8146,0,0,1,1.9025.7718,14.263,14.263,0,0,1,4.3419,3.3759,24.1557,24.1557,0,0,1,3.071,4.1746c.1133.1957.2132.3994.3238.5951,1.9025,3.3084,3.7,6.6641,5.4835,10.0373,5.2028,9.8227,10.5891,19.98,18.7388,28.4643,3.1843,3.3328,6.5386,6.0745,12.1084,6.6628a26.0867,26.0867,0,0,0,7.8285-.3913,5.5275,5.5275,0,1,0-2.0725-10.859c-5.9584,1.1442-6.9083.0648-9.8875-3.0548-7.081-7.3832-11.8736-16.4288-16.9469-26.0033-1.9475-3.66-3.8844-7.33-5.958-10.8948a6.989,6.989,0,0,1,.2725-7.4855c14.9783-21.7053,24.8236-38.3784,25.9678-43.46.7016-3.0979,1.36-6.2067,2.0293-9.3154,1.4249-6.7248,2.8929-13.6871,4.8143-20.2932.0944-.3238.24-.6314.3346-.9553.6126-2.07,1.4356-4.068,2.1426-6.1068s1.3412-4.1018,2.1427-6.1041a140.6283,140.6283,0,0,1,7.61-16.248c6.1635-11.0857,12.3594-18.0588,19.5052-21.9663,6.6254-3.63,14.5195-4.8418,23.3926-5.9519l.1039-.0127,7.9282-.9545,6.8085-.82c.1376-.0162.2779-.035.4182-.0512,2.3289-.2726,4.6874-.5667,7.0325-.8474,19.4469-2.32,39.3064-4.9627,58.5382-10.1362l.0555-.015,2.9156-.7923.0735-.02c5.2-1.4319,10.1106-2.7863,15.0427-3.1094,3.4813-.23,22.5.1926,36.6064,1.0194,3.5665.209,9.0875.4414,12.0793.5621,1.95.0786,2.1952.4234,1.626,2.29-.7423,2.4342-2.5821,6.0167-6.9857,6.0583-14.3352.1357-38.0089.8815-42.4625,1.2317-1.8539.14-7.0513.5788-52.0146,42.2675-1.3844,1.2845-2.92,2.7269-4.3825,4.091-.3832.3575-.78.7286-1.1685,1.0929-1.0929,1.02-2.1507,2.005-3.2841,3.071-4.31,4.0424-8.827,8.3034-13.7816,13.0232l-.0039.0038a3.404,3.404,0,0,0-1.41,2.1874c-1.1118,3.2059.7988,5.9692,1.6191,7.1458a39.2054,39.2054,0,0,0,2.5259,3.1155c.9715,1.1091,2.14,2.3761,3.47,3.7658.1431.15.3077.3158.4561.4682,1.0254,1.0633,2.0914,2.1575,3.2868,3.3476.2024.2.4291.421.6369.6234,1.1037,1.0929,2.202,2.1831,3.4245,3.3583,20.1906,19.4256,55.2421,48.9208,65.019,49.18,3.9183.0971,7.9985.1619,12.0787.1619,10.3985,0,20.7437-.4312,28.699-1.6306.0986-.0148.1215.0181.0734.1054a.6169.6169,0,0,1-.1137.1651c-2.4287,2.202-6.0448,3.3462-9.2614,4.1774-8.0741,2.1048-16.6555,3.0008-24.9563,3.8751-5.6022.5721-11.3663,1.1874-16.5907.1943-4.199-.81-8.3224-2.6662-12.6832-4.6307l-1.209-.54c-21.2538-9.4882-43.5493-16.58-65.5237-23.1618q-2.6958-.81-5.3809-1.6083c-1.808-.537-3.6268-1.0875-5.4268-1.6205-.6611-.1956-1.3331-.4007-1.9915-.595l-1.09-.3238c-6.6061-1.9538-14.0865-4.1666-19.3433-8.6678a26.3288,26.3288,0,0,1-6.8678-10.268,34.4107,34.4107,0,0,1-1.8836-6.63,38.9006,38.9006,0,0,1-.65-6.6627,41.205,41.205,0,0,1,.0864-5.497,5.5079,5.5079,0,0,0-4.7322-6.118c-.1058-.0144-.0869-.0117-.1926-.027a4.93,4.93,0,0,0-2.8444.5347,5.54,5.54,0,0,0-3.1978,4.315c-.03.2456-.0215.4885-.0485.734-.0135.1431-.0135.2834-.027.4264a52.3158,52.3158,0,0,0-.0108,10.3787c1.1388,10.99,5.7965,20.8571,13.169,27.1906,7.0486,6.0556,16.1265,8.7325,23.4126,10.8914l.0616.0183c.8184.244.881.3886.4936,1.15-.2387.469-.4781.9381-.7063,1.4011-9.3154,18.8144-13.8382,33.991-13.8382,46.3828v1.4777c0,.0367,0,.03,0,.0672-.0323,10.87-.0562,27.2562,18.5662,29.2942a142.4446,142.4446,0,0,0,20.0773.3239l5.0851-.15.1058-.0029c6.5356-.1615,13.2856-.3373,20.1107-1.8445,6.6925-1.468,12.2731-4.6523,17.6594-7.7394,1.5544-.8852,3.1087-1.7811,4.6847-2.623a6.3628,6.3628,0,0,1,2.5474-.82,1.2193,1.2193,0,0,1,.9823.3886c2.7633,3.2706,2.2776,11.15.0324,15.5005-3.3031,6.401-12.327,11.7873-25.41,15.1659a165.3432,165.3432,0,0,1-17.7889,3.2383c-12.1543,1.77-24.7188,3.5945-36.2686,10.5783-14.2507,8.613-24.8736,21.2843-35.1475,33.5419-.0457.0545-.0377.045-.0837.0992l-1.1022,1.3c-1.1523,1.3817-2.3478,2.7269-3.5081,4.1018-1.2225,1.4492-2.453,2.8956-3.7,4.3258-.7448.8582-1.4572,1.746-2.2155,2.5933-.5343.5964-1.0065,1.093-1.5355,1.6785-14.7476,16.37-26.8668,28.6263-38.9536,39.3288q-6.3633,5.6346-13.0071,10.913c-4.8088,3.81-10.3732,7.95-16.4342,11.9681-1.6218,1.0754-3.2706,2.1386-4.968,3.1843-1.6623,1.0227-3.384,1.9861-5.1138,2.9643q-.2874.1623-.5759.3234c-6.4265,3.5893-9.5963.1557-5.498-5.9587l.0022-.0033c1.1172-1.6771,2.0778-3.4946,3.12-5.2487.9661-1.6326,2.0185-3.1951,2.9036-4.8871.1673-.3157.278-.6017.44-.9148,1.09-2.121,2.07-4.1827,2.9063-6.1716a51.9281,51.9281,0,0,0,4.2961-17.179,49,49,0,0,0-1.4059-14.47,51.978,51.978,0,0,0-2.7768-8.12,54.8873,54.8873,0,0,0-20.7087-24.4624c-14.0325-8.8081-29.954-9.5205-43.7383-1.9214a177.0948,177.0948,0,0,0-22.6139,14.8313c-5.0948,3.9183-11.4311,9.24-15.3062,15.6732-2.8281,4.7171-3.1519,9.9631-3.4433,14.583-.0864,1.4356-.162,2.8389-.3455,4.1666a39.17,39.17,0,0,1-6.8781,16.9756A4.5413,4.5413,0,0,1,92.0778,413.6732Zm133.9365,23.1059c5.5012-3.73,8.7035-6.0566,14.9777-11.03q6.8812-5.4565,13.4712-11.3016c9.6837-8.5683,19.413-18.1743,30.3583-29.8961,3.9872-4.27,6.39-3.4669,7,2.3433l.0006.0059a100.6312,100.6312,0,0,1,.5613,10.6215c0,21.2971-5.98,41.3527-17.3032,58.0082-7.26,10.6588-17.1841,20.7029-30.3528,30.7144l-.0453.0346-8.8783,6.7851c-2.1073,1.61-1.7811,1.2294-3.0477,3.56a6.9924,6.9924,0,0,0,.0647,4.9545c5.16,13.9893,14.583,26.8345,28.0542,38.244a219.5423,219.5423,0,0,0,21.6533,16.105,51.6482,51.6482,0,0,0,7.3184,3.5728c2.8306,1.2065,7.0243,2.9948,9.2819,4.8369,2.1305,1.7383,2.1628,1.941.6187,4.2162l-.0023.0033a16.7048,16.7048,0,0,1-10.46,6.822c-4.5551.9391-9.5421-.2915-13.795-1.6408a137.5363,137.5363,0,0,1-38.136-18.7172c-11.3771-7.9661-24.2654-17.6485-33.6672-29.0148-10.5244-12.6941-13.8382-23.0565-10.4488-32.6094,2.1528-6.0926,6.1949-11.584,10.8631-17.609.0423-.0546.0349-.045.0775-.0994l1.2137-1.5485c5.6908-7.2734,11.0659-14.1331,12.9226-25.4655A17.9425,17.9425,0,0,1,226.0143,436.7791ZM455.7971,124.5064c-5.7695,6.2634-11.856,12.7759-17.8107,19.0392a5.47,5.47,0,0,0-.0537,7.5227c19.09,20.8583,40.109,45.68,47.3465,56.7038a1.1588,1.1588,0,0,1-.8944,1.9374c-8.1717,1.1027-23.4246,1.6649-35.3748,1.5652a21.8746,21.8746,0,0,1-11.9622-3.6669c-11.8073-7.8153-30.3132-23.0666-49.0034-40.5627q-2.19-2.0482-4.1368-3.9331c-.3266-.3158-.6207-.6086-.9364-.9148-1.0282-1.0053-2.0024-1.97-2.8956-2.8767-.3778-.3845-.7205-.7421-1.0713-1.1078l-.0624-.0646c-3.5423-3.676-3.5272-4.2655.1886-7.766q2.7743-2.6136,5.56-5.2209c1.9025-1.78,3.7726-3.5136,5.6643-5.27q1.0362-.9634,2.0671-1.9187c17.1312-15.8673,33.2553-30.2353,42.1277-37.2536a21.6814,21.6814,0,0,1,12.8287-4.646c8.9532-.29,20.7732-.6216,34.1311-.7538h0c.1215,0,.1433.0463.0661.14-2.9958,3.64-7.1755,8.4531-12.0072,13.8749C465.3932,114.0171,460.7247,119.1579,455.7971,124.5064ZM252.9736,12.5136c12.7263,9.7688,25.28,20.142,37.3156,30.8283,10.0642,8.9286,21.66,17.7466,32.4,26.1677,6.3505,4.9793,5.3674,11.61-2.3761,13.8817a48.4151,48.4151,0,0,0-9.698,3.9587c-11.8952,6.4981-19.3382,18.1556-23.88,26.3293-2.6129,4.7019-5.993,4.353-7.6764-.7559-12.4866-37.894-26.0336-94.6492-27.0129-99.4334a2.8815,2.8815,0,0,1-.0653-.4068l-.0007-.0061c-.1061-.9131.2618-1.1225.9945-.5635Z" fill="#14463d"/><path d="M331.9738,116.0734c4.6145,1.5031,8.0093,2.847,9.3883,7.815a15.0266,15.0266,0,0,1-1.1712,10.859,13.7508,13.7508,0,0,1-.6935,1.3439,10.279,10.279,0,0,1-2.3612,2.5529,12.4659,12.4659,0,0,1-6.0475,2.067,14.1974,14.1974,0,0,1-5.5348-.2644,13.4189,13.4189,0,0,1-1.8781-.8582c-4.0155-1.9-8.0525-5.9354-9.27-9.8065a11.16,11.16,0,0,1,2.9118-10.975C321.2363,114.9157,326.9437,114.434,331.9738,116.0734Z" fill="#14463d"/><path d="M460.5952,196.4365c1.0227,2.6135-.3913,4.0006-2.9981,2.2613-6.6358-4.431-45.0687-25.8049-57.4119-39.2748a18.8161,18.8161,0,0,1-3.2409-4.4958c-1.7622-3.8049.3427-6.3335,8.5193-6.6357.65-.0243,1.3574-.027,2.086-.0216,2.2263.0135,4.7414.1336,7.7449.4372a2.0954,2.0954,0,0,1,1.16.4209l.0082.0068c.1191.101.0979.0833.2182.1829,7.0406,5.8236,35.4651,34.4911,43.1152,45.4537A6.8991,6.8991,0,0,1,460.5952,196.4365Z" fill="#14463d"/><path d="M320.3133,83.39a48.5615,48.5615,0,0,0-9.6986,3.9588c-11.8953,6.4981-19.3379,18.1559-23.88,26.33-2.6135,4.7022-5.9935,4.3528-7.6774-.7556C266.5715,75.03,253.0247,18.2741,252.0452,13.49a2.7486,2.7486,0,0,1-.0648-.4075c-.1079-.9175.26-1.128.9931-.5694,12.7264,9.7688,25.28,20.142,37.3156,30.8283,10.0643,8.9295,21.66,17.7471,32.3989,26.1679C329.0391,74.4891,328.0554,81.12,320.3133,83.39Z" fill="#fd803b"/><path d="M484.3856,209.71a1.1584,1.1584,0,0,0,.8932-1.9376c-7.2376-11.0236-28.2566-35.8449-47.3462-56.7048a5.4713,5.4713,0,0,1,.054-7.5222c5.9543-6.2634,12.0409-12.7763,17.81-19.04,4.9276-5.3485,9.5961-10.4893,13.7708-15.1713,4.8317-5.4214,9.0118-10.2356,12.0072-13.876.0769-.0931.0553-.14-.0661-.14-13.3579.1322-25.1775.4642-34.1314.7543a21.6925,21.6925,0,0,0-12.8289,4.6455c-8.8715,7.019-24.9967,21.3861-42.1272,37.2536-.6881.64-1.3762,1.2764-2.0671,1.9187-1.8917,1.7567-3.7618,3.4919-5.6642,5.27q-2.7486,2.5764-5.497,5.1623c-3.7753,3.5567-3.7915,4.1558-.1889,7.8906.3508.3643.6935.7232,1.0713,1.1064.8932.9067,1.8674,1.8728,2.8956,2.8767.3157.3076.61.599.9364.9148q1.9429,1.8822,4.1369,3.9345c18.69,17.4947,37.1969,32.747,49.0031,40.562a21.8767,21.8767,0,0,0,11.9627,3.6673C460.9594,211.3748,476.213,210.8121,484.3856,209.71ZM457.597,198.6969c-6.6358-4.431-45.0686-25.8036-57.4118-39.2748a18.82,18.82,0,0,1-3.241-4.4958c-1.7622-3.8049.3427-6.3335,8.5194-6.6357.65-.0243,1.3573-.027,2.0859-.0216,2.2263.0135,4.7414.1349,7.7449.4372a2.0955,2.0955,0,0,1,1.16.421c.1282.1092.1052.09.2267.1915,7.04,5.8235,35.4644,34.49,43.1148,45.4518a6.8954,6.8954,0,0,1,.7988,1.6651C461.6178,199.0505,460.2038,200.4375,457.597,198.6969Z" fill="#2ea878"/><path d="M204.1013,475.7875c.0418-.054.035-.0459.0769-.1l1.2143-1.549c5.6913-7.2726,11.0668-14.1324,12.9234-25.4649a17.9337,17.9337,0,0,1,7.699-11.8939c5.5-3.7321,8.7028-6.0583,14.977-11.0317q6.8813-5.4565,13.4712-11.3016c9.6838-8.5679,19.4134-18.1734,30.3587-29.8946,3.9872-4.2705,6.39-3.4677,7,2.3477a100.6316,100.6316,0,0,1,.5613,10.6216c0,21.297-5.98,41.3526-17.3031,58.0081-7.2605,10.6593-17.1845,20.7034-30.3534,30.715-.0243.0189-.0189.0162-.0445.0351l-8.8783,6.7842c-2.1076,1.611-1.781,1.2305-3.048,3.5594a6.9923,6.9923,0,0,0,.0648,4.9545c5.16,13.9893,14.583,26.8345,28.0542,38.244a219.5291,219.5291,0,0,0,21.6532,16.105,51.6547,51.6547,0,0,0,7.3185,3.5729c2.8267,1.2062,7.0122,2.99,9.2722,4.829,2.144,1.7446,2.1791,1.9416.6261,4.2273a16.7051,16.7051,0,0,1-10.46,6.822c-4.5552.9391-9.5421-.2915-13.7951-1.6408a137.5377,137.5377,0,0,1-38.136-18.7172c-11.3771-7.9661-24.2654-17.6485-33.6672-29.0148-10.5243-12.6941-13.8382-23.0565-10.4488-32.6094C195.3917,487.3036,199.4341,481.812,204.1013,475.7875Z" fill="#2ea878"/><path d="M75.4732,439.3705c.0351-.0108.0283-.0081.0647-.0216l1.9754-.6477c6.8813-2.2587,13.4523-4.5443,19.7534-9.4395a42.4536,42.4536,0,0,0,4.3879-3.8886c.1943-.2.394-.3158.5883-.5209,1.1145-1.1846,2.0482-2.4961,3.0439-3.7671A50.5633,50.5633,0,0,0,115.822,396.906c.2159-1.576.3238-3.2491.421-4.9438.2267-3.6916.4425-7.1673,1.889-9.5637,2.9468-4.9005,8.5814-9.5421,12.5644-12.6076a167.9285,167.9285,0,0,1,21.2107-13.9246,30.1338,30.1338,0,0,1,14.637-3.81,33.5327,33.5327,0,0,1,17.8752,5.4187,43.3676,43.3676,0,0,1,17.7053,22.854,38.6353,38.6353,0,0,1,2.0023,11.7037c.0108.8338.0944,1.6677.0459,2.4988a36.7343,36.7343,0,0,1-1.7514,8.9539,64.1622,64.1622,0,0,1-3.8077,9.0779c-.2914.5829-.5154,1.1226-.8311,1.7217a98.3324,98.3324,0,0,1-5.4295,9.1319,106.4662,106.4662,0,0,1-23.4667,25.0075,99.8231,99.8231,0,0,1-8.3952,5.94c-2.7417,1.7-5.6319,3.0952-8.5166,4.5146-2.1022,1.0309-4.1126,2.2506-6.285,3.1277-11.9411,4.8223-25.7685,7.6612-42.2891,8.6556-.0391.0013-.0323.0013-.07.004l-11.1316.7057c-2.5447.1606-2.0671.0364-4.3662,1.1375a7.15,7.15,0,0,0-2.8821,4.4148c-3.4757,14.3563-2.7741,30.267,2.0833,47.2463a217.1378,217.1378,0,0,0,9.024,25.42,50.5984,50.5984,0,0,0,4.091,7.0271c1.6744,2.569,4.1639,6.3794,5.0274,9.167.82,2.65.7394,2.8348-1.8323,3.8724a16.9059,16.9059,0,0,1-12.4782-.14c-4.3392-1.77-7.7718-5.57-10.5567-9.0456a137.3267,137.3267,0,0,1-21.297-36.7651C53.9927,510.7419,48.66,495.5005,47.16,480.8635c-1.6623-16.3964,1.3493-26.856,9.4665-32.9008C61.8428,444.0727,68.5109,441.6777,75.4732,439.3705Z" fill="#2ea878"/><path d="M11.0532,310.4118c0,21.0272,6.714,40.7806,19.9478,58.7206,13.4819,18.2747,38.77,32.2316,61.0764,44.54a4.5407,4.5407,0,0,0,5.91-1.2467,39.167,39.167,0,0,0,6.8787-16.9766c.1835-1.3277.259-2.731.3454-4.1666.2914-4.62.6152-9.8659,3.4433-14.583,3.8752-6.4334,10.2114-11.7549,15.3063-15.6732a177.0808,177.0808,0,0,1,22.6139-14.8313c13.7842-7.5991,29.7057-6.8867,43.7382,1.9214a54.8873,54.8873,0,0,1,20.7087,24.4624,52.0241,52.0241,0,0,1,2.7768,8.12,49.0033,49.0033,0,0,1,1.406,14.47,51.933,51.933,0,0,1-4.2961,17.179c-.8366,1.9889-1.8162,4.0506-2.9064,6.1716-.1619.3131-.2725.5991-.44.9148-.8852,1.692-1.9376,3.2545-2.9037,4.8871-1.0416,1.7541-2.0023,3.5729-3.12,5.2487-4.1,6.1176-.931,9.5529,5.4956,5.9625.1929-.1066.3845-.2146.5761-.3225,1.73-.98,3.4515-1.943,5.1138-2.9657,1.6974-1.0444,3.3462-2.1076,4.968-3.1843,6.061-4.0182,11.6254-8.1577,16.4343-11.9681q6.6546-5.2622,13.007-10.913c12.0868-10.7025,24.2061-22.9593,38.9537-39.3288.5289-.5855,1.0011-1.0821,1.5355-1.6785.7582-.8473,1.4707-1.7351,2.2155-2.5933,1.2467-1.43,2.4772-2.8766,3.7-4.3258,1.16-1.3735,2.3558-2.72,3.5081-4.1018l1.1024-1.2993.0836-.0985c10.2748-12.2582,20.8963-24.9293,35.1474-33.5431,11.55-6.9838,24.1143-8.8081,36.2686-10.5783a165.3387,165.3387,0,0,0,17.7889-3.2383c13.0826-3.3786,22.1066-8.7649,25.41-15.1659,2.2452-4.35,2.7309-12.23-.0324-15.5005a1.22,1.22,0,0,0-.9823-.3886,6.3633,6.3633,0,0,0-2.5474.82c-1.5759.8419-3.13,1.7378-4.6847,2.623-5.3863,3.0871-10.9669,6.2714-17.6593,7.7394-6.8247,1.5085-13.5751,1.6839-20.11,1.8458-.0594,0-.0486,0-.1066.0027l-5.0854.1485a142.4451,142.4451,0,0,1-20.0773-.3239c-18.6227-2.0374-18.5984-18.423-18.5661-29.2928v-1.5463c0-12.3918,4.5228-27.5684,13.8382-46.3828.2186-.4425.448-.8932.6774-1.3425.4129-.8109.3454-.9647-.5262-1.2265-7.2861-2.1589-16.3641-4.8358-23.4127-10.8914-7.3725-6.3335-12.03-16.1994-13.169-27.1906a52.3158,52.3158,0,0,1,.0108-10.3787c.0135-.143.0135-.2833.027-.4264.027-.2455.0189-.4884.0486-.734a5.54,5.54,0,0,1,3.1978-4.315,4.9432,4.9432,0,0,1,2.8442-.5343c.1053.0162.0864.0135.193.027a5.5082,5.5082,0,0,1,4.7319,6.1176,41.2049,41.2049,0,0,0-.0863,5.497,38.8767,38.8767,0,0,0,.65,6.6627,34.3608,34.3608,0,0,0,1.8836,6.63,26.3193,26.3193,0,0,0,6.8678,10.268c5.2568,4.5012,12.7372,6.714,19.3433,8.6678l1.09.3238c.6585.1943,1.33.3994,1.9915.5964,1.8.5316,3.6188,1.0821,5.4268,1.6191q2.6878.8014,5.381,1.6083c21.9743,6.5818,44.27,13.6736,65.5236,23.1618l1.209.54c4.3609,1.9645,8.4842,3.8211,12.6832,4.6307,5.2244.9931,10.9885.3778,16.5907-.1943,8.3008-.8743,16.8822-1.77,24.9563-3.8751,3.2167-.8312,6.8327-1.9754,9.2614-4.1774a.5778.5778,0,0,0,.1134-.1646c.0486-.0864.0256-.12-.0729-.1052-7.9553,1.2-18.3016,1.63-28.6991,1.63-4.08,0-8.1605-.0648-12.0788-.1619-9.7769-.2591-44.8284-29.7543-65.019-49.1785-1.2225-1.1766-2.3208-2.2668-3.4245-3.36-.2078-.2024-.4345-.4237-.6368-.6234-1.1955-1.19-2.2614-2.283-3.2869-3.3462-.1484-.1538-.313-.3185-.456-.47-1.33-1.39-2.4989-2.6554-3.47-3.7645a39.42,39.42,0,0,1-2.5258-3.1168c-.82-1.1766-2.731-3.94-1.6192-7.1458a3.4205,3.4205,0,0,1,1.4141-2.1912c4.9545-4.72,9.4719-8.9808,13.7815-13.0232,1.1334-1.066,2.1912-2.0509,3.2841-3.071.3886-.3643.7853-.734,1.1685-1.0929,1.4626-1.3628,2.9981-2.8065,4.3825-4.091,44.9633-41.6873,50.1608-42.1272,52.0147-42.2675,4.4526-.35,28.127-1.0956,42.4618-1.2306a6.4742,6.4742,0,0,0,5.2783-2.623c3.0278-3.91,2.225-5.6319-2.7161-5.841-2.9576-.1255-6.6505-.2928-9.2816-.4466-14.1054-.8271-33.1248-1.2494-36.606-1.02-4.9329.3239-9.8416,1.6785-15.0417,3.11l-.0742.02-2.9158.792c-.03.0094-.0243.0067-.0554.0148-19.2312,5.1732-39.0913,7.8178-58.5384,10.1358-2.345.2807-4.7036.5748-7.0324.8474-.14.0162-.2807.035-.4183.0512l-6.8085.82-7.9283.9553c-.0567.0067-.0459.0054-.1039.0135-8.8729,1.1091-16.7675,2.3207-23.3925,5.95-7.1458,3.9075-13.3416,10.8806-19.5052,21.9663a140.6283,140.6283,0,0,0-7.61,16.248c-.8015,2.0023-1.4356,4.0667-2.1426,6.1041-.7071,2.04-1.53,4.037-2.1427,6.1068-.0944.3239-.24.6315-.3346.9553-1.9214,6.6061-3.3894,13.5684-4.8142,20.2932-.6693,3.1087-1.3277,6.2175-2.0294,9.3154-1.1441,5.0814-10.9885,21.7558-25.9682,43.46a6.9926,6.9926,0,0,0-.2725,7.4858c2.0738,3.5648,4.01,7.2348,5.9584,10.894,5.0733,9.5745,9.8659,18.62,16.9469,26.0033,2.9792,3.12,3.9291,4.199,9.8875,3.0548a5.5275,5.5275,0,1,1,2.0725,10.859,26.0867,26.0867,0,0,1-7.8285.3913c-5.57-.5883-8.9241-3.33-12.1084-6.6628-8.15-8.4842-13.536-18.6416-18.7388-28.4643-1.7837-3.3732-3.581-6.7275-5.4835-10.036-.1106-.197-.21-.3994-.3238-.5964a24.211,24.211,0,0,0-3.0709-4.1746,14.2853,14.2853,0,0,0-4.342-3.3759,10.8146,10.8146,0,0,0-1.9025-.7718c-3.6161-.9607-10.1574.82-12.1867,3.9615a4.3328,4.3328,0,0,0-.5613,2.4611c.0189,3.3327,1.2009,6.9461,2.7175,10.5324.8095,1.9133,1.6839,3.7969,2.596,5.6373.2617.5343.5262,1.0875.7853,1.6084l1.9159,3.89c.0216.0446.0162.0351.0378.08l.03.0608c.0607.1241.05.1012.1079.2253a216.7069,216.7069,0,0,0,14.5965,25.5041c4.3609,6.7329,8.63,15.7217,6.1177,25.6794-1.3547,5.37-4.593,11.0074-11.0506,16.7527a5.5282,5.5282,0,1,1-7.34-8.2684c11.2071-9.9617,9.646-17.8213,3.1087-27.9733-7.5182-11.6739-20.8153-12.68-29.8676-2.1534-3.97,4.6145-2.0968,2.7336-12.0895,13.6223-13.9786,15.2307-34.6387,31.5623-53.9172,42.6156-15.9863,9.1643-35.1784,14.637-51.3374,14.637-27.7519,0-44.4722-15.7488-48.7251-31.3572a84.1505,84.1505,0,0,1-2.8821-22.1606c0-26.856,10.9454-44.3859,17.4867-54.8671,1.32-2.12,2.7795-4.4526,3.5027-5.9611.1781-.3737.1781-.3791-.1349-.65a1.65,1.65,0,0,0-1.09-.4372C46.6094,239.7312,11.0532,268.6813,11.0532,310.4118ZM317.3179,118.8062c3.9183-3.8914,9.6257-4.3717,14.6558-2.7337,4.6146,1.5031,8.0094,2.847,9.3883,7.815a15.0259,15.0259,0,0,1-1.1712,10.859,13.707,13.707,0,0,1-.6935,1.3439,10.2771,10.2771,0,0,1-2.3612,2.5529,12.4667,12.4667,0,0,1-6.0475,2.0671,14.1492,14.1492,0,0,1-5.5347-.2645,13.4254,13.4254,0,0,1-1.8782-.8581c-4.0155-1.9-8.0525-5.9342-9.27-9.8066A11.1605,11.1605,0,0,1,317.3179,118.8062Z" fill="#2ea878"/></svg>