<svg xmlns="http://www.w3.org/2000/svg" viewBox="0 0 500 206.8093"><path d="M28.2669,92.99H40.4617c2.2856,0,2.4645-.1789,2.4645-2.4645V56.4691c0-2.2855.1789-2.4645,2.4644-2.4645H58.9079c2.2856,0,2.4645.179,2.4645,2.4645V90.5254c0,2.2856.1788,2.4645,2.4644,2.4645H76.0316c2.2855,0,2.4644-.1789,2.4644-2.4645V3.5167c0-2.2855-.1789-2.4645-2.4644-2.4645H63.8368c-2.2856,0-2.4644.179-2.4644,2.4645V35.4688c0,2.2856-.1789,2.4645-2.4645,2.4645H45.3906c-2.2855,0-2.4644-.1789-2.4644-2.4645V3.5167c0-2.2855-.1789-2.4645-2.4645-2.4645H28.2669c-2.2855,0-2.4644.179-2.4644,2.4645V90.5254C25.8025,92.811,25.9814,92.99,28.2669,92.99Z" fill="#14463d"/><path d="M130.9365,0C103.9342,0,85.373,19.1018,85.373,47.024s18.5612,47.0181,45.5635,47.0181c27.14,0,45.7129-19.228,45.7129-47.0181S158.0768,0,130.9365,0Zm0,77.4474c-16.1921,0-27.3932-12.6442-27.3932-30.4234,0-17.7848,11.2011-30.297,27.3932-30.297,16.3416,0,27.5313,12.5122,27.5313,30.297C158.4678,64.9355,147.14,77.4474,130.9365,77.4474Z" fill="#14463d"/><path d="M209.2178,94.0421c16.7326,0,26.3467-10.4017,26.3467-27.3932V3.5167c0-2.2855-.1789-2.4645-2.4644-2.4645H221.0433c-2.2856,0-2.4645.179-2.4645,2.4645V66.9135c0,6.5838-3.427,10.7985-9.361,10.7985-5.9227,0-9.2117-4.2147-9.2117-10.7985V3.5167c0-2.2855-.1788-2.4645-2.4644-2.4645H185.4734c-2.2855,0-2.4644.179-2.4644,2.4645V66.6489C183.009,83.64,192.6231,94.0421,209.2178,94.0421Z" fill="#14463d"/><path d="M249.8174,42.55l11.7044,15.6558.02.0261c3.03,3.9449,4.8662,7.4953,4.8662,11.5791,0,6.0549-3.9561,8.6883-8.6941,8.6883-3.3016,0-6.9972-1.207-11.3512-4.0032-2.7558-1.77-3.7945-1.2-3.7945,2.075V88.9686c0,1.7107-.0183,1.6836,1.5777,2.3a41.2855,41.2855,0,0,0,14.7525,2.7738c14.6166,0,24.76-8.43,24.76-23.9719,0-10.2684-4.2079-16.5931-10.4052-24.8888l-.0047-.0063L262.0621,30.2988l-.0028-.0037c-2.368-3.1617-3.4256-5.7945-3.4256-8.56,0-4.6116,3.036-7.1127,7.7741-7.1127a23.7443,23.7443,0,0,1,8.2387,1.8035c2.7126,1.05,3.3534.6093,3.3534-2.2992V3.7478c0-1.9068-.0268-1.9437-1.88-2.3946A45.0585,45.0585,0,0,0,265.4878,0C251.7911,0,242.177,7.6418,242.177,22.1263c0,8.1683,3.1491,14.4862,7.6319,20.4128Z" fill="#14463d"/><path d="M292.2059,92.99h32.481c2.2856,0,2.4645-.1789,2.4645-2.4645V79.383c0-2.2855-.1789-2.4645-2.4645-2.4645H309.33c-2.2856,0-2.4644-.1789-2.4644-2.4644V57.389c0-2.2855.1788-2.4644,2.4644-2.4644h15.3573c2.2856,0,2.4645-.179,2.4645-2.4645V41.9789c0-2.2856-.1789-2.4645-2.4645-2.4645H309.33c-2.2856,0-2.4644-.1789-2.4644-2.4644V19.588c0-2.2855.1788-2.4644,2.4644-2.4644h15.3573c2.2856,0,2.4645-.1787,2.4645-2.4645V3.5167c0-2.2855-.1789-2.4645-2.4645-2.4645h-32.481c-2.2856,0-2.4644.179-2.4644,2.4645V90.5254C289.7415,92.811,289.92,92.99,292.2059,92.99Z" fill="#14463d"/><path d="M399.9125,62.9688c17.8827,0,30.3718-12.811,30.3718-31.1537,0-18.3484-12.4891-31.1595-30.3718-31.1595-17.8366,0-30.2913,12.8111-30.2913,31.16C369.6212,50.1578,382.0759,62.9688,399.9125,62.9688Zm0-46.3857c8.1191,0,13.57,6.124,13.57,15.232,0,9.16-5.4511,15.3124-13.57,15.3124-8.0731,0-13.5011-6.1527-13.5011-15.3124C386.4114,22.7071,391.8394,16.5831,399.9125,16.5831Z" fill="#14463d"/><path d="M442.5411,61.1951H453.58c2.2856,0,2.4645-.179,2.4645-2.4645V43.2691c0-2.2856.1788-2.4645,2.4644-2.4645h13.224c2.2856,0,2.4645-.1789,2.4645-2.4644v-8.974c0-2.2858-.1789-2.4644-2.4645-2.4644H458.509c-2.2856,0-2.4644-.179-2.4644-2.4645V18.3959c0-2.2858.1788-2.4645,2.4644-2.4645h13.224c2.2856,0,2.4645-.1789,2.4645-2.4644v-9.95c0-2.2855-.1789-2.4645-2.4645-2.4645H442.5411c-2.2856,0-2.4644.179-2.4644,2.4645V58.7306C440.0767,61.0161,440.2555,61.1951,442.5411,61.1951Z" fill="#14463d"/><path d="M405.3176,76.6708c-2.7946,2.6853-4.0481,3.7779-7.1071,3.7779s-4.3125-1.0926-7.1071-3.7779c-2.627-2.5221-6.0137-5.7784-11.5891-7.0178-4.16-.9244-4.833-.3871-4.833,3.8738v5.7126c0,2.8083-.0193,2.7822,2.6226,3.7343,1.4654.5281,2.6388,1.6067,4.4845,3.38,3.312,3.18,7.8315,7.527,16.4221,7.527s13.11-4.3471,16.4222-7.527c2.7945-2.6853,4.048-3.7776,7.107-3.7776s4.3241,1.0923,7.1186,3.7834c3.312,3.1741,7.8431,7.5212,16.4452,7.5212s13.1331-4.3471,16.4451-7.5212c1.846-1.7774,3.0245-2.8576,4.4937-3.386,2.6454-.9515,2.6249-.9239,2.6249-3.7351V73.5265c0-4.2645-.6689-4.7982-4.8321-3.874-5.5792,1.2388-8.9718,4.4949-11.59,7.0125-2.806,2.6911-4.071,3.7837-7.1415,3.7837s-4.3356-1.0926-7.1416-3.7837c-3.3006-3.1738-7.8316-7.5208-16.4222-7.5208S408.63,73.4912,405.3176,76.6708Z" fill="#14463d"/><path d="M32.9814,108.8444H8.3056c-2.2855,0-2.4644.179-2.4644,2.4645v87.0087c0,2.2856.1789,2.4645,2.4644,2.4645H32.9814c28.1869,0,45.8395-18.1761,45.8395-45.9659C78.8209,126.8938,61.03,108.8444,32.9814,108.8444Zm-.4024,76.1307h-7.15c-2.2856,0-2.4644-.179-2.4644-2.4645v-55.395c0-2.2855.1788-2.4644,2.4644-2.4644h7.15c18.3081,0,28.1867,12.6445,28.1867,30.165C60.7657,172.3308,50.8871,184.9751,32.579,184.9751Z" fill="#2ea878"/><path d="M32.9814,108.8443c28.0488,0,45.8394,18.05,45.8394,45.9718,0,27.79-17.6526,45.9659-45.8394,45.9659H8.3056c-2.2855,0-2.4644-.1787-2.4644-2.4643V111.3089c0-2.2856.1789-2.4646,2.4644-2.4646H32.9814m-7.5521,76.1308h7.15c18.3081,0,28.1867-12.6445,28.1867-30.159,0-17.52-9.8786-30.1649-28.1867-30.1649h-7.15c-2.2856,0-2.4644.179-2.4644,2.4646v55.3947c0,2.2856.1788,2.4646,2.4644,2.4646m7.5521-81.9721H8.3056a8.15,8.15,0,0,0-6.22,2.0863A8.1508,8.1508,0,0,0,0,111.3089v87.0088a8.15,8.15,0,0,0,2.0863,6.22,8.15,8.15,0,0,0,6.2193,2.0856H32.9814c15.3687,0,28.3848-4.9428,37.6412-14.294,9.1847-9.2787,14.0395-22.25,14.0395-37.5132,0-15.3007-4.8756-28.2935-14.1-37.5743-9.258-9.3149-22.2533-14.2388-37.581-14.2388Zm-4.1753,27.49H32.579c7.1447,0,12.7277,2.2045,16.5938,6.5524,3.7628,4.2316,5.7517,10.3768,5.7517,17.7712,0,7.3915-1.9888,13.5347-5.7514,17.7657-3.8664,4.3475-9.4495,6.552-16.5941,6.552H28.8061V130.4925Z" fill="#14463d"/><rect x="85.698" y="107.978" width="17.1236" height="91.9376" rx="2.4644" fill="#2ea878"/><path d="M100.3572,107.978c2.2855,0,2.4644.1787,2.4644,2.4643v87.0089c0,2.2855-.1789,2.4645-2.4644,2.4645H88.1624c-2.2856,0-2.4644-.179-2.4644-2.4645V110.4423c0-2.2856.1788-2.4643,2.4644-2.4643h12.1948m0-5.8412H88.1624a7.3616,7.3616,0,0,0-8.3057,8.3055v87.0089a7.3618,7.3618,0,0,0,8.3057,8.3058h12.1948a7.3616,7.3616,0,0,0,8.3056-8.3058V110.4423a7.3614,7.3614,0,0,0-8.3056-8.3055Z" fill="#14463d"/><path d="M170.4389,107.978H159.841c-2.2921,0-2.4736.1823-2.4643,2.4744l.2538,62.8347c.0006.1439-.0108.1552-.1545.1552-.11,0-.1092.0006-.1457-.1033l-22.4417-63.7153c-.5833-1.656-.569-1.6457-2.3245-1.6457H115.3027c-2.2856,0-2.4645.1789-2.4645,2.4644v87.0088c0,2.2855.1789,2.4644,2.4645,2.4644h10.6139c2.2891,0,2.4693-.1807,2.4645-2.47l-.1324-62.1782c0-.1439.011-.1553.1549-.1553.11,0,.109-.0007.1459.1031l22.4382,63.0618c.5868,1.6494.5711,1.6383,2.3218,1.6383h17.1294c2.2855,0,2.4644-.1789,2.4644-2.4644V110.4424C172.9033,108.1569,172.7244,107.978,170.4389,107.978Z" fill="#2ea878"/><path d="M132.6281,107.978c1.6911,0,1.6844.01,2.2605,1.6455L157.33,173.3391c.0363.1029.0357.1033.1436.1033h.0021c.1437,0,.1551-.0113.1545-.1551l-.2539-62.8347c-.0092-2.2922.1723-2.4746,2.4644-2.4746h10.5978c2.2856,0,2.4645.1787,2.4645,2.4643v87.0089c0,2.2855-.1789,2.4645-2.4645,2.4645H153.2415c-1.6824,0-1.6747-.0106-2.2538-1.6385L128.55,135.2154c-.0365-.1023-.0359-.103-.1418-.103h-.0041c-.1439,0-.1552.0113-.1549.1551l.1324,62.1783c.0049,2.2889-.1754,2.47-2.4645,2.47H115.3027c-2.2856,0-2.4645-.179-2.4645-2.4645V110.4423c0-2.2856.1789-2.4643,2.4645-2.4643h17.3254m37.8107-5.8412H159.841a7.3639,7.3639,0,0,0-8.3055,8.3394l.1178,29.1621-11.2552-31.9552a7.9777,7.9777,0,0,0-2.8088-4.2363,7.7989,7.7989,0,0,0-4.9612-1.31H115.3027a7.3616,7.3616,0,0,0-8.3057,8.3055v87.0089a7.3618,7.3618,0,0,0,8.3057,8.3058h10.6139a7.3631,7.3631,0,0,0,8.3057-8.3238l-.0618-29.0233,11.3239,31.8254.0116.0325a7.9287,7.9287,0,0,0,2.7988,4.1845,7.788,7.788,0,0,0,4.9467,1.3047h17.1973a7.3618,7.3618,0,0,0,8.3057-8.3058V110.4423a7.3616,7.3616,0,0,0-8.3057-8.3055Z" fill="#14463d"/><path d="M225.3553,106.9257c-27.0023,0-45.575,19.1016-45.575,47.024s18.5727,47.0182,45.575,47.0182c27.1287,0,45.7014-19.2284,45.7014-47.0182S252.484,106.9257,225.3553,106.9257Zm0,77.4475c-16.2037,0-27.3933-12.6445-27.3933-30.4235,0-17.785,11.19-30.2972,27.3933-30.2972,16.33,0,27.5312,12.5122,27.5312,30.2972C252.8865,171.8609,241.5589,184.3732,225.3553,184.3732Z" fill="#2ea878"/><path d="M225.3553,106.9258c27.1287,0,45.7014,19.2337,45.7014,47.0238S252.484,200.968,225.3553,200.968c-27.0023,0-45.5749-19.0962-45.5749-47.0184s18.5726-47.0238,45.5749-47.0238m0,77.4474c16.2036,0,27.5312-12.5122,27.5312-30.4236,0-17.7849-11.2011-30.2972-27.5312-30.2972-16.2037,0-27.3933,12.5123-27.3933,30.2972,0,17.7792,11.19,30.4236,27.3933,30.4236m0-83.2887c-30.2731,0-51.4162,21.7389-51.4162,52.8651,0,31.1228,21.1431,52.86,51.4162,52.86,30.3475,0,51.5426-21.7369,51.5426-52.86,0-31.1262-21.1951-52.8651-51.5426-52.8651Zm0,77.4475c-12.891,0-21.5521-9.879-21.5521-24.5824,0-14.6278,8.6611-24.4559,21.5521-24.4559,12.9734,0,21.69,9.8281,21.69,24.4559,0,14.7034-8.7166,24.5824-21.69,24.5824Z" fill="#14463d"/><path d="M304.8071,152.1006l-11.1858-14.876-.0029-.0037c-2.368-3.1617-3.4255-5.7948-3.4255-8.56,0-4.6116,3.036-7.1129,7.7741-7.1129a23.7489,23.7489,0,0,1,8.2386,1.8035c2.7127,1.05,3.3534.6095,3.3534-2.2992v-10.379c0-1.9069-.0267-1.9435-1.8794-2.3946a45.0739,45.0739,0,0,0-10.6327-1.353c-13.6966,0-23.3107,7.6419-23.3107,22.1263,0,8.1681,3.1491,14.486,7.6319,20.4128l.0084.0111,11.7045,15.6558.02.0261c3.03,3.9451,4.8663,7.4953,4.8663,11.5793,0,6.0547-3.9561,8.6883-8.6942,8.6883-3.3015,0-6.9972-1.2069-11.3511-4.0034-2.7558-1.77-3.7945-1.2-3.7945,2.0752V195.894c0,1.7108-.0183,1.6837,1.5777,2.3a41.2793,41.2793,0,0,0,14.7525,2.7741c14.6166,0,24.76-8.4295,24.76-23.972,0-10.2683-4.208-16.5931-10.4052-24.889Z" fill="#2ea878"/><path d="M297.0469,106.9258a45.0787,45.0787,0,0,1,10.6327,1.3528c1.8527.4511,1.88.488,1.88,2.3945v10.3792c0,1.9813-.2972,2.8173-1.3441,2.8173a6.108,6.108,0,0,1-2.0094-.5181,23.7492,23.7492,0,0,0-8.2386-1.8036c-4.7381,0-7.7741,2.5014-7.7741,7.1131,0,2.7652,1.0575,5.3981,3.4255,8.56l.0029.0037L304.8071,152.1l.0048.0064c6.1972,8.2958,10.4052,14.6207,10.4052,24.889,0,15.5425-10.1431,23.9722-24.76,23.9722a41.2793,41.2793,0,0,1-14.7525-2.7741c-1.596-.6162-1.5777-.589-1.5777-2.3V183.4973c0-2.0713.4152-3.06,1.4175-3.06a4.967,4.967,0,0,1,2.377.9851c4.3539,2.7965,8.05,4.0035,11.3512,4.0035,4.738,0,8.6941-2.6336,8.6941-8.6885,0-4.0838-1.8361-7.6342-4.8663-11.5792l-.02-.0263-11.7045-15.6557-.0084-.011c-4.4828-5.927-7.6319-12.2449-7.6319-20.4129,0-14.4842,9.6141-22.1261,23.3107-22.1261m0-5.8413c-17.7091,0-29.1519,10.9781-29.1519,27.9674,0,10.8867,4.7106,18.5107,8.8143,23.9364l.0126.0166,11.6674,15.6063.02.0276.0512.0674c2.6053,3.3919,3.6649,5.7157,3.6649,8.0308,0,1.9292-.4269,2.8472-2.8528,2.8472-2.2585,0-5.0156-1.0353-8.1946-3.077a10.4561,10.4561,0,0,0-5.5326-1.9116,6.9826,6.9826,0,0,0-6.4073,4.1865,11.1873,11.1873,0,0,0-.8524,4.7152v12.4535c0,4.0593,1.4744,6.21,5.2607,7.6711l.0544.0213a47.2959,47.2959,0,0,0,16.8563,3.1661c18.5893,0,30.6009-11.7025,30.6009-29.8135,0-11.96-4.7813-19.2992-11.54-28.3494l-.005-.007-.0309-.0412-.0265-.0352-.005-.0066L298.29,133.714l-.0206-.0272c-1.98-2.6532-2.2352-4.0792-2.2352-5.0258a1.9722,1.9722,0,0,1,.1491-.92,3.0884,3.0884,0,0,1,1.7838-.352,18.27,18.27,0,0,1,6.1309,1.41,11.38,11.38,0,0,0,4.1171.9118,6.9179,6.9179,0,0,0,6.3929-4.1134,10.8963,10.8963,0,0,0,.7924-4.5452V110.6731a7.2408,7.2408,0,0,0-6.3389-8.07,51,51,0,0,0-12.0145-1.5186Z" fill="#14463d"/><path d="M359.9026,109.9375c-.4012-1.9171-.4533-1.96-2.4122-1.96H337.6581c-1.9613,0-2.0143.0429-2.413,1.9635L317.1784,196.95c-.5335,2.5691-.211,2.9654,2.4129,2.9654h11.91c1.9927,0,2.0569-.0535,2.4226-2.0122l1.7558-9.4077c.3656-1.9588.43-2.0123,2.4226-2.0123h18.4232c1.9927,0,2.057.0535,2.4226,2.0123l1.7559,9.4077c.3656,1.9587.43,2.0122,2.4225,2.0122h12.5722c2.6265,0,2.95-.3984,2.4121-2.9693Zm-6.7785,62.7114H341.6583c-2.5912,0-2.9-.3719-2.4221-2.9188l8.1224-43.3144c.0237-.1262.0278-.13.1562-.13s.1333.0037.1563.13l7.8776,43.3271C356.0106,172.2839,355.706,172.6489,353.1241,172.6489Z" fill="#2ea878"/><path d="M357.49,107.978c1.9589,0,2.0109.0426,2.4122,1.9594l18.2082,87.0089c.538,2.5709.2144,2.9694-2.4121,2.9694H363.1265c-1.9927,0-2.0569-.0534-2.4225-2.0125l-1.7559-9.4076c-.3656-1.9587-.43-2.0122-2.4226-2.0122H338.1023c-1.9927,0-2.057.0535-2.4226,2.0122l-1.7558,9.4076c-.3657,1.9591-.43,2.0125-2.4227,2.0125h-11.91c-2.6239,0-2.9464-.3966-2.4129-2.9654l18.0667-87.0089c.3987-1.9205.4517-1.9634,2.413-1.9634H357.49m-15.8321,64.6709h11.4658c2.5819,0,2.8865-.3651,2.4246-2.9054l-7.8776-43.3269c-.023-.1269-.0274-.13-.1563-.13s-.1325.0033-.1562.1295L339.2361,169.73c-.4775,2.547-.169,2.9187,2.4222,2.9187M357.49,102.1368H337.6581a7.2566,7.2566,0,0,0-8.1323,6.6172l-18.0667,87.0088c-.3131,1.508-.9649,4.6462,1.2109,7.32s5.381,2.6742,6.9213,2.6742h11.91a7.2667,7.2667,0,0,0,8.1647-6.7819l1.2412-6.65h12.8136l1.2412,6.65a7.2665,7.2665,0,0,0,8.1646,6.7819h12.5722c1.5419,0,4.75,0,6.9264-2.6788s1.5189-5.819,1.2031-7.3283L365.62,108.741a7.256,7.256,0,0,0-8.13-6.6042Zm-11.7632,64.6708,1.7013-9.0722,1.6495,9.0722Z" fill="#14463d"/><path d="M431.7328,107.978H419.676c-2.2856,0-2.4645.1789-2.4645,2.4644v63.3965c0,6.5838-3.427,10.7988-9.3495,10.7988-5.9341,0-9.2231-4.215-9.2231-10.7988V110.4424c0-2.2855-.1789-2.4644-2.4644-2.4644H384.1177c-2.2856,0-2.4645.1789-2.4645,2.4644v63.1322c0,16.9913,9.6141,27.3933,26.2088,27.3933,16.7211,0,26.3352-10.402,26.3352-27.3933V110.4424C434.1972,108.1569,434.0183,107.978,431.7328,107.978Z" fill="#2ea878"/><path d="M431.7328,107.978c2.2855,0,2.4644.1787,2.4644,2.4643v63.1323c0,16.9913-9.6141,27.3934-26.3352,27.3934-16.5947,0-26.2087-10.4021-26.2087-27.3934V110.4423c0-2.2856.1788-2.4643,2.4643-2.4643h12.0569c2.2855,0,2.4644.1787,2.4644,2.4643V173.839c0,6.5836,3.289,10.7986,9.2231,10.7986,5.9225,0,9.35-4.215,9.35-10.7986V110.4423c0-2.2856.1788-2.4643,2.4644-2.4643h12.0568m0-5.8412H419.676a7.3616,7.3616,0,0,0-8.3057,8.3055V173.839c0,1.6092,0,4.9574-3.5083,4.9574-3.3819,0-3.3819-3.2249-3.3819-4.9574V110.4423a7.3614,7.3614,0,0,0-8.3056-8.3055H384.1176a7.3614,7.3614,0,0,0-8.3056,8.3055v63.1323c0,9.9025,2.9334,18.2313,8.4831,24.0868,5.6723,5.9844,13.8215,9.1479,23.5669,9.1479,9.7977,0,17.9828-3.1608,23.6705-9.1406,5.5646-5.85,8.5059-14.182,8.5059-24.0941V110.4423a7.3614,7.3614,0,0,0-8.3056-8.3055Z" fill="#14463d"/><path d="M480.4075,153.3433c-.2075-.0553-.21-.0579-.21-.2727,0-.0466,0-.0466.0447-.06,8.0158-2.3841,13.9164-10.0127,13.9164-21.3193,0-15.0191-9.35-23.7132-24.2307-23.7132H446.1723c-2.2856,0-2.4645.1789-2.4645,2.4644v87.0088c0,2.2855.1789,2.4644,2.4645,2.4644H458.367c2.2856,0,2.4645-.1789,2.4645-2.4644V163.9179c0-2.2855.1788-2.4644,2.4644-2.4644h3.3316c7.3831,0,10.4076,4.347,10.4076,15.5424v20.4553c0,2.2855.1789,2.4644,2.4645,2.4644h12.1947c2.2856,0,2.4645-.1789,2.4645-2.4644V175.4145C494.1588,162.4786,489.4926,155.76,480.4075,153.3433Zm-14.0445-7.6911h-3.0671c-2.2856,0-2.4644-.1786-2.4644-2.4644v-18.652c0-2.2855.1788-2.4645,2.4644-2.4645h3.0671c6.59,0,10.5456,3.6914,10.5456,11.46C476.9086,141.4375,472.8261,145.6522,466.363,145.6522Z" fill="#2ea878"/><path d="M469.9281,107.978c14.8811,0,24.2307,8.6942,24.2307,23.7132,0,11.3066-5.9006,18.9351-13.9164,21.3194-.0446.0132-.0448.0132-.0448.06,0,.2145.0024.2172.21.2727,9.0851,2.4167,13.7513,9.1352,13.7513,22.071v22.0368c0,2.2855-.1789,2.4645-2.4644,2.4645H479.5c-2.2855,0-2.4644-.179-2.4644-2.4645V176.9958c0-11.1953-3.0245-15.5422-10.4076-15.5422h-3.3316c-2.2856,0-2.4644.1787-2.4644,2.4642v33.5334c0,2.2855-.1789,2.4645-2.4645,2.4645H446.1722c-2.2855,0-2.4644-.179-2.4644-2.4645V110.4423c0-2.2856.1789-2.4643,2.4644-2.4643h23.7559m-6.6322,37.6743h3.0671c6.4631,0,10.5456-4.2147,10.5456-12.1209,0-7.7688-3.956-11.46-10.5456-11.46h-3.0671c-2.2856,0-2.4644.179-2.4644,2.4642v18.6521c0,2.2859.1788,2.4646,2.4644,2.4646m6.6322-43.5155H446.1722a7.3614,7.3614,0,0,0-8.3056,8.3055v87.0089a7.3617,7.3617,0,0,0,8.3056,8.3058H458.367a7.3618,7.3618,0,0,0,8.3057-8.3058V167.2949c2.4161.0079,2.8518.653,3.0866,1.0007.5357.7932,1.4346,2.9785,1.4346,8.7v20.4554A7.3618,7.3618,0,0,0,479.5,205.757h12.1949A7.3617,7.3617,0,0,0,500,197.4512V175.4144c0-10.2071-2.746-17.7656-8.186-22.5962a25.0433,25.0433,0,0,0,3.2125-3.8217A30.4276,30.4276,0,0,0,500,131.6912c0-8.9383-2.8769-16.439-8.32-21.6917-5.33-5.1437-12.8516-7.8627-21.752-7.8627Zm-3.2554,37.6683V127.9169a4.7825,4.7825,0,0,1,3.2144,1.01c.7611.7952,1.18,2.43,1.18,4.6044,0,2.1453,0,6.0973-4.3947,6.2737Z" fill="#14463d"/></svg>