<svg xmlns="http://www.w3.org/2000/svg" viewBox="0 0 301.3488 94.0421"><path d="M2.4644,92.99H14.6592c2.2856,0,2.4644-.1789,2.4644-2.4645V56.4691c0-2.2855.179-2.4645,2.4645-2.4645H33.1054c2.2856,0,2.4644.179,2.4644,2.4645V90.5254c0,2.2856.1789,2.4645,2.4645,2.4645H50.2291c2.2855,0,2.4644-.1789,2.4644-2.4645V3.5167c0-2.2855-.1789-2.4645-2.4644-2.4645H38.0343c-2.2856,0-2.4645.179-2.4645,2.4645V35.4688c0,2.2856-.1788,2.4645-2.4644,2.4645H19.5881c-2.2855,0-2.4645-.1789-2.4645-2.4645V3.5167c0-2.2855-.1788-2.4645-2.4644-2.4645H2.4644C.1789,1.0522,0,1.2312,0,3.5167V90.5254C0,92.811.1789,92.99,2.4644,92.99Z" fill="#14463d"/><path d="M105.134,0C78.1317,0,59.5705,19.1018,59.5705,47.024S78.1317,94.0421,105.134,94.0421c27.14,0,45.7129-19.228,45.7129-47.0181S132.2742,0,105.134,0Zm0,77.4474c-16.1921,0-27.3933-12.6442-27.3933-30.4234,0-17.7848,11.2012-30.297,27.3933-30.297,16.3416,0,27.5312,12.5122,27.5312,30.297C132.6652,64.9355,121.3377,77.4474,105.134,77.4474Z" fill="#14463d"/><path d="M183.4153,94.0421c16.7326,0,26.3467-10.4017,26.3467-27.3932V3.5167c0-2.2855-.1789-2.4645-2.4644-2.4645H195.2408c-2.2856,0-2.4645.179-2.4645,2.4645V66.9135c0,6.5838-3.427,10.7985-9.361,10.7985-5.9227,0-9.2117-4.2147-9.2117-10.7985V3.5167c0-2.2855-.1788-2.4645-2.4644-2.4645H159.6709c-2.2856,0-2.4644.179-2.4644,2.4645V66.6489C157.2065,83.64,166.8206,94.0421,183.4153,94.0421Z" fill="#14463d"/><path d="M224.0148,42.55l11.7045,15.6558.02.0261c3.03,3.9449,4.8662,7.4953,4.8662,11.5791,0,6.0549-3.9561,8.6883-8.6941,8.6883-3.3016,0-6.9973-1.207-11.3512-4.0032-2.7558-1.77-3.7945-1.2-3.7945,2.075V88.9686c0,1.7107-.0183,1.6836,1.5777,2.3a41.2855,41.2855,0,0,0,14.7525,2.7738c14.6166,0,24.76-8.43,24.76-23.9719,0-10.2684-4.2079-16.5931-10.4052-24.8888l-.0047-.0063L236.26,30.2988l-.0029-.0037c-2.368-3.1617-3.4255-5.7945-3.4255-8.56,0-4.6116,3.036-7.1127,7.7741-7.1127a23.7448,23.7448,0,0,1,8.2387,1.8035c2.7126,1.05,3.3534.6093,3.3534-2.2992V3.7478c0-1.9068-.0268-1.9437-1.8795-2.3946A45.0587,45.0587,0,0,0,239.6852,0c-13.6966,0-23.3107,7.6418-23.3107,22.1263,0,8.1683,3.1491,14.4862,7.6319,20.4128Z" fill="#14463d"/><path d="M266.4034,92.99h32.481c2.2856,0,2.4644-.1789,2.4644-2.4645V79.383c0-2.2855-.1788-2.4645-2.4644-2.4645H283.5271c-2.2856,0-2.4645-.1789-2.4645-2.4644V57.389c0-2.2855.1789-2.4644,2.4645-2.4644h15.3573c2.2856,0,2.4644-.179,2.4644-2.4645V41.9789c0-2.2856-.1788-2.4645-2.4644-2.4645H283.5271c-2.2856,0-2.4645-.1789-2.4645-2.4644V19.588c0-2.2855.1789-2.4644,2.4645-2.4644h15.3573c2.2856,0,2.4644-.1787,2.4644-2.4645V3.5167c0-2.2855-.1788-2.4645-2.4644-2.4645h-32.481c-2.2856,0-2.4644.179-2.4644,2.4645V90.5254C263.939,92.811,264.1178,92.99,266.4034,92.99Z" fill="#14463d"/></svg>