<svg xmlns="http://www.w3.org/2000/svg" viewBox="0 0 500 25.9169"><path d="M36.3845.5055V25.4114H31.2588V9.5482L21.0558,25.4114H15.3287L5.1257,9.6032V25.4114H0V.5055H5.1257L18.1714,20.9668,31.2588.5055Z" fill="#fff"/><path d="M76.3017,19.7416H63.5058l-2.5736,5.67H55.4L67.1.5055h5.5678L84.469,25.4114H78.8838Zm-1.7386-3.8168L69.8918,5.67l-4.6541,10.255Z" fill="#fff"/><path d="M132.33,12.8791c0,6.6007-3.8888,12.5323-14.5971,12.5323H103.4845V.5055H117.733C128.9465.5055,132.33,6.2781,132.33,12.8791Zm-5.22,0c0-4.2185-2.1345-7.9292-9.4979-7.9292H108.61V20.9668h9.0022C124.9758,20.9668,127.11,17.0973,127.11,12.8791Z" fill="#fff"/><path d="M177.08,21.14v4.2714H152.7244V.5055H177.029V4.7766H157.85v6.6275h15.692v3.1881H157.85V21.14Z" fill="#fff"/><path d="M221.4933,12.9582C221.4933,4.8631,227.2855,0,237.2433,0s15.7495,4.8631,15.7495,12.9582-5.7922,12.9587-15.7495,12.9587S221.4933,21.0533,221.4933,12.9582Zm26.1331,0c0-5.6836-4.6489-8.4535-10.3831-8.4535s-10.5043,2.77-10.5043,8.4535c0,5.7709,4.77,8.5141,10.5043,8.5141S247.6264,18.7291,247.6264,12.9582Z" fill="#fff"/><path d="M278.5057,4.83v6.6076h15.692v4.0839h-15.692v9.89H273.38V.5055h24.3045V4.83Z" fill="#fff"/><path d="M367.3743,9.0722c0,5.9871-4.44,8.2658-10.0224,8.2658H347.0334v8.0734h-5.1257V.5055h15.4442C362.9345.5055,367.3743,3.0851,367.3743,9.0722Zm-5.1252,0c0-2.7025-1.8291-4.1223-4.4281-4.1223H347.0334v8.2444H357.821C360.42,13.1943,362.2491,11.6951,362.2491,9.0722Z" fill="#fff"/><path d="M409.2341,21.1558v4.2714H390.6887v-.0158h-3.1215V.5055h5.1257v20.65Z" fill="#fff"/><path d="M448.0069,19.7416H435.211l-2.5735,5.67h-5.5322l11.7-24.9059h5.5678l11.8012,24.9059h-5.5851Zm-1.7386-3.8168L441.597,5.67l-4.654,10.255Z" fill="#fff"/><path d="M500,.5055l-10.9611,17.053v7.8529h-5.1252V17.5585L472.9525.5055h5.9317l7.6539,12.38,7.53-12.38Z" fill="#fff"/></svg>