<svg xmlns="http://www.w3.org/2000/svg" viewBox="0 0 500 105.7248"><path d="M32.9814,7.76H8.3056c-2.2855,0-2.4644.1789-2.4644,2.4645V97.2331c0,2.2855.1789,2.4645,2.4644,2.4645H32.9814c28.1869,0,45.8395-18.1761,45.8395-45.966C78.8209,25.8092,61.03,7.76,32.9814,7.76ZM32.579,83.8905h-7.15c-2.2856,0-2.4644-.1789-2.4644-2.4644V26.0311c0-2.2855.1788-2.4644,2.4644-2.4644h7.15c18.3081,0,28.1867,12.6445,28.1867,30.1649C60.7657,71.2463,50.8871,83.8905,32.579,83.8905Z" fill="#9bdfd0"/><path d="M32.9814,7.76c28.0488,0,45.8394,18.05,45.8394,45.9718,0,27.79-17.6526,45.9659-45.8394,45.9659H8.3056c-2.2855,0-2.4644-.1787-2.4644-2.4643V10.2244c0-2.2856.1789-2.4646,2.4644-2.4646H32.9814M25.4293,83.8906h7.15c18.3081,0,28.1867-12.6445,28.1867-30.159,0-17.52-9.8786-30.1649-28.1867-30.1649h-7.15c-2.2856,0-2.4644.179-2.4644,2.4646V81.426c0,2.2856.1788,2.4646,2.4644,2.4646M32.9814,1.9185H8.3056a8.15,8.15,0,0,0-6.22,2.0863A8.1508,8.1508,0,0,0,0,10.2244V97.2332a8.15,8.15,0,0,0,2.0863,6.22,8.15,8.15,0,0,0,6.2193,2.0856H32.9814c15.3687,0,28.3848-4.9428,37.6412-14.294,9.1847-9.2787,14.0395-22.25,14.0395-37.5132,0-15.3007-4.8756-28.2936-14.1-37.5743C61.3044,6.8424,48.3091,1.9185,32.9814,1.9185Zm-4.1753,27.49H32.579c7.1447,0,12.7277,2.2045,16.5938,6.5524,3.7628,4.2316,5.7517,10.3768,5.7517,17.7712,0,7.3915-1.9888,13.5347-5.7514,17.7656-3.8664,4.3476-9.4495,6.5521-16.5941,6.5521H28.8061V29.408Z" fill="#14463d"/><rect x="85.698" y="6.8935" width="17.1236" height="91.9376" rx="2.4644" fill="#9bdfd0"/><path d="M100.3572,6.8935c2.2855,0,2.4644.1787,2.4644,2.4643V96.3666c0,2.2856-.1789,2.4646-2.4644,2.4646H88.1624c-2.2856,0-2.4644-.179-2.4644-2.4646V9.3578c0-2.2856.1788-2.4643,2.4644-2.4643h12.1948m0-5.8412H88.1624A8.15,8.15,0,0,0,81.943,3.1379a8.15,8.15,0,0,0-2.0863,6.22V96.3666a7.3619,7.3619,0,0,0,8.3057,8.3059h12.1948a7.3616,7.3616,0,0,0,8.3056-8.3059V9.3578a8.15,8.15,0,0,0-2.0862-6.22,8.15,8.15,0,0,0-6.2194-2.0856Z" fill="#14463d"/><path d="M170.4389,6.8935H159.841c-2.2921,0-2.4736.1823-2.4643,2.4744l.2538,62.8347c.0006.1439-.0108.1552-.1545.1552-.11,0-.1092.0005-.1457-.1033L134.8886,8.5391c-.5833-1.6559-.569-1.6456-2.3245-1.6456H115.3027c-2.2856,0-2.4645.1789-2.4645,2.4644V96.3667c0,2.2855.1789,2.4644,2.4645,2.4644h10.6139c2.2891,0,2.4693-.1808,2.4645-2.47l-.1324-62.1783c0-.1438.011-.1552.1549-.1552.11,0,.109-.0008.1459.1031l22.4382,63.0618c.5868,1.6494.5711,1.6383,2.3218,1.6383h17.1294c2.2855,0,2.4644-.1789,2.4644-2.4644V9.3579C172.9033,7.0724,172.7244,6.8935,170.4389,6.8935Z" fill="#9bdfd0"/><path d="M132.6281,6.8935c1.6911,0,1.6844.01,2.2605,1.6455L157.33,72.2546c.0363.1029.0357.1033.1436.1033h.0021c.1437,0,.1551-.0113.1545-.1552l-.2539-62.8349c-.0092-2.2919.1723-2.4743,2.4644-2.4743h10.5978c2.2856,0,2.4645.1787,2.4645,2.4643V96.3666c0,2.2856-.1789,2.4646-2.4645,2.4646H153.2415c-1.6824,0-1.6747-.0106-2.2538-1.6385L128.55,34.1309c-.0365-.1023-.0359-.103-.1418-.103h-.0041c-.1439,0-.1552.0113-.1549.1551l.1324,62.1783c.0049,2.2889-.1754,2.47-2.4645,2.47H115.3027c-2.2856,0-2.4645-.179-2.4645-2.4646V9.3578c0-2.2856.1789-2.4643,2.4645-2.4643h17.3254m37.8107-5.8412H159.841a8.1494,8.1494,0,0,0-6.2339,2.0969,8.1488,8.1488,0,0,0-2.0716,6.2421l.1178,29.1625L140.3981,6.5986a7.9777,7.9777,0,0,0-2.8088-4.2363,7.7989,7.7989,0,0,0-4.9612-1.31H115.3027a8.15,8.15,0,0,0-6.2194,2.0856,8.15,8.15,0,0,0-2.0863,6.22V96.3666a7.3619,7.3619,0,0,0,8.3057,8.3059h10.6139a7.3631,7.3631,0,0,0,8.3057-8.3238l-.0618-29.0233,11.3239,31.8254.0116.0325a7.9287,7.9287,0,0,0,2.7988,4.1845,7.788,7.788,0,0,0,4.9467,1.3047h17.1973a7.3619,7.3619,0,0,0,8.3057-8.3059V9.3578a8.15,8.15,0,0,0-2.0863-6.22,8.15,8.15,0,0,0-6.2194-2.0856Z" fill="#14463d"/><path d="M225.3553,5.8412c-27.0023,0-45.575,19.1016-45.575,47.024s18.5727,47.0181,45.575,47.0181c27.1287,0,45.7014-19.2283,45.7014-47.0181S252.484,5.8412,225.3553,5.8412Zm0,77.4474c-16.2037,0-27.3933-12.6445-27.3933-30.4234,0-17.785,11.19-30.2973,27.3933-30.2973,16.33,0,27.5312,12.5123,27.5312,30.2973C252.8865,70.7764,241.5589,83.2886,225.3553,83.2886Z" fill="#9bdfd0"/><path d="M225.3553,5.8413c27.1287,0,45.7014,19.2337,45.7014,47.0237S252.484,99.8835,225.3553,99.8835c-27.0023,0-45.5749-19.0962-45.5749-47.0185S198.353,5.8413,225.3553,5.8413m0,77.4474c16.2036,0,27.5312-12.5122,27.5312-30.4237,0-17.7848-11.2011-30.2971-27.5312-30.2971-16.2037,0-27.3933,12.5123-27.3933,30.2971,0,17.7793,11.19,30.4237,27.3933,30.4237m0-83.2887c-30.2731,0-51.4162,21.7388-51.4162,52.865,0,31.1229,21.1431,52.86,51.4162,52.86,30.3475,0,51.5426-21.7369,51.5426-52.86C276.8979,21.7388,255.7028,0,225.3553,0Zm0,77.4475c-12.891,0-21.5521-9.879-21.5521-24.5825,0-14.6277,8.6611-24.4558,21.5521-24.4558,12.9734,0,21.69,9.8281,21.69,24.4558,0,14.7035-8.7166,24.5825-21.69,24.5825Z" fill="#14463d"/><path d="M304.8071,51.016,293.6213,36.14l-.0029-.0037c-2.368-3.1617-3.4255-5.7948-3.4255-8.56,0-4.6116,3.036-7.1129,7.7741-7.1129a23.7489,23.7489,0,0,1,8.2386,1.8035c2.7127,1.05,3.3534.61,3.3534-2.2992V9.5887c0-1.9068-.0267-1.9434-1.8794-2.3946a45.0789,45.0789,0,0,0-10.6327-1.3529c-13.6966,0-23.3107,7.6419-23.3107,22.1263,0,8.1681,3.1491,14.486,7.6319,20.4128l.0084.0111L293.081,64.0472l.02.026c3.03,3.9452,4.8663,7.4954,4.8663,11.5794,0,6.0547-3.9561,8.6883-8.6942,8.6883-3.3015,0-6.9972-1.2069-11.3511-4.0034-2.7558-1.77-3.7945-1.2-3.7945,2.0752V94.81c0,1.7108-.0183,1.6836,1.5777,2.3a41.2792,41.2792,0,0,0,14.7525,2.774c14.6166,0,24.76-8.43,24.76-23.9719,0-10.2684-4.208-16.5931-10.4052-24.889Z" fill="#9bdfd0"/><path d="M297.0469,5.8413A45.0787,45.0787,0,0,1,307.68,7.1941c1.8527.4511,1.88.488,1.88,2.3945V19.9678c0,1.9813-.2972,2.8173-1.3441,2.8173a6.108,6.108,0,0,1-2.0094-.5181,23.7492,23.7492,0,0,0-8.2386-1.8036c-4.7381,0-7.7741,2.5014-7.7741,7.1131,0,2.7651,1.0575,5.3981,3.4255,8.56l.0029.0037,11.1858,14.8758.0048.0063c6.1972,8.2959,10.4052,14.6208,10.4052,24.889,0,15.5425-10.1431,23.9723-24.76,23.9723a41.2773,41.2773,0,0,1-14.7525-2.7742c-1.596-.6161-1.5777-.5889-1.5777-2.3V82.4128c0-2.0713.4152-3.06,1.4175-3.06a4.966,4.966,0,0,1,2.377.9851c4.3539,2.7964,8.05,4.0035,11.3512,4.0035,4.738,0,8.6941-2.6337,8.6941-8.6885,0-4.0838-1.8361-7.6342-4.8663-11.5792l-.02-.0263L281.3765,48.3912l-.0084-.0109c-4.4828-5.927-7.6319-12.2449-7.6319-20.4129,0-14.4843,9.6141-22.1261,23.3107-22.1261m0-5.8413C279.3378,0,267.895,10.978,267.895,27.9674c0,10.8867,4.7106,18.5106,8.8143,23.9364l.0126.0166,11.6674,15.6063.02.0275.0512.0675c2.6053,3.3919,3.6649,5.7157,3.6649,8.0308,0,1.9291-.4269,2.8472-2.8528,2.8472-2.2585,0-5.0156-1.0353-8.1946-3.0771a10.4569,10.4569,0,0,0-5.5326-1.9115,6.9826,6.9826,0,0,0-6.4073,4.1865,11.1873,11.1873,0,0,0-.8524,4.7152V94.8663c0,4.0593,1.4744,6.21,5.2607,7.6711l.0544.0213a47.2959,47.2959,0,0,0,16.8563,3.1661c18.5893,0,30.6009-11.7025,30.6009-29.8136,0-11.96-4.7813-19.2991-11.54-28.3493l-.005-.007-.0309-.0412-.0265-.0352-.005-.0067L298.29,32.63l-.0206-.0272c-1.98-2.6533-2.2352-4.0792-2.2352-5.0258a1.9718,1.9718,0,0,1,.1491-.92,3.0879,3.0879,0,0,1,1.7838-.3521,18.27,18.27,0,0,1,6.1309,1.41,11.38,11.38,0,0,0,4.1171.9118,6.9179,6.9179,0,0,0,6.3929-4.1134,10.8968,10.8968,0,0,0,.7924-4.5452V9.5886a7.9624,7.9624,0,0,0-1.4893-5.347,7.9507,7.9507,0,0,0-4.85-2.723A51,51,0,0,0,297.0469,0Z" fill="#14463d"/><path d="M359.9026,8.853c-.4012-1.9171-.4533-1.9595-2.4122-1.9595H337.6581c-1.9613,0-2.0143.0429-2.413,1.9634L317.1784,95.8657c-.5335,2.5691-.211,2.9654,2.4129,2.9654h11.91c1.9927,0,2.0569-.0535,2.4226-2.0122l1.7558-9.4077c.3656-1.9588.43-2.0123,2.4226-2.0123h18.4232c1.9927,0,2.057.0535,2.4226,2.0123l1.7559,9.4077c.3656,1.9587.43,2.0122,2.4225,2.0122h12.5722c2.6265,0,2.95-.3984,2.4121-2.9694Zm-6.7785,62.7113H341.6583c-2.5912,0-2.9-.3718-2.4221-2.9187l8.1224-43.3144c.0237-.1262.0278-.13.1562-.13s.1333.0036.1563.13l7.8776,43.327C356.0106,71.1994,355.706,71.5643,353.1241,71.5643Z" fill="#9bdfd0"/><path d="M357.49,6.8935c1.9589,0,2.0109.0422,2.4122,1.9594l18.2082,87.0089c.538,2.5708.2144,2.9694-2.4121,2.9694H363.1265c-1.9927,0-2.0569-.0534-2.4225-2.0125l-1.7559-9.4076c-.3656-1.9587-.43-2.0122-2.4226-2.0122H338.1023c-1.9927,0-2.057.0535-2.4226,2.0122l-1.7558,9.4076c-.3657,1.9591-.43,2.0125-2.4227,2.0125h-11.91c-2.6239,0-2.9464-.3966-2.4129-2.9654L335.2451,8.8569c.3987-1.92.4517-1.9634,2.413-1.9634H357.49M341.6583,71.5643h11.4658c2.5819,0,2.8865-.365,2.4246-2.9053l-7.8776-43.3269c-.023-.1269-.0274-.1305-.1563-.1305s-.1325.0033-.1562.13l-8.1225,43.3146c-.4775,2.547-.169,2.9186,2.4222,2.9186M357.49,1.0523H337.6581a8.0633,8.0633,0,0,0-5.4788,1.5717,8.0632,8.0632,0,0,0-2.6535,5.0454L311.4591,94.6783c-.3131,1.508-.9649,4.6462,1.2109,7.32s5.381,2.6742,6.9213,2.6742h11.91a7.2667,7.2667,0,0,0,8.1647-6.7819l1.2412-6.65h12.8136l1.2412,6.65a7.2665,7.2665,0,0,0,8.1646,6.7819h12.5722c1.5419,0,4.75,0,6.9264-2.6788s1.5189-5.819,1.2031-7.3284L365.62,7.6565A8.0621,8.0621,0,0,0,362.9633,2.62,8.063,8.063,0,0,0,357.49,1.0523ZM345.7272,65.7231l1.7013-9.0722,1.6495,9.0722Z" fill="#14463d"/><path d="M431.7328,6.8935H419.676c-2.2856,0-2.4645.1789-2.4645,2.4644V72.7544c0,6.5838-3.427,10.7988-9.3495,10.7988-5.9341,0-9.2231-4.215-9.2231-10.7988V9.3579c0-2.2855-.1789-2.4644-2.4644-2.4644H384.1177c-2.2856,0-2.4645.1789-2.4645,2.4644V72.49c0,16.9913,9.6141,27.3932,26.2088,27.3932,16.7211,0,26.3352-10.4019,26.3352-27.3932V9.3579C434.1972,7.0724,434.0183,6.8935,431.7328,6.8935Z" fill="#9bdfd0"/><path d="M431.7328,6.8935c2.2855,0,2.4644.1787,2.4644,2.4643V72.49c0,16.9913-9.6141,27.3934-26.3352,27.3934-16.5947,0-26.2087-10.4021-26.2087-27.3934V9.3578c0-2.2856.1788-2.4643,2.4643-2.4643h12.0569c2.2855,0,2.4644.1787,2.4644,2.4643V72.7544c0,6.5837,3.289,10.7987,9.2231,10.7987,5.9225,0,9.35-4.215,9.35-10.7987V9.3578c0-2.2856.1788-2.4643,2.4644-2.4643h12.0568m0-5.8412H419.676a8.15,8.15,0,0,0-6.2194,2.0856,8.15,8.15,0,0,0-2.0863,6.22V72.7544c0,1.6093,0,4.9575-3.5083,4.9575-3.3819,0-3.3819-3.2249-3.3819-4.9575V9.3578a8.15,8.15,0,0,0-2.0862-6.22,8.15,8.15,0,0,0-6.2194-2.0856H384.1176a8.15,8.15,0,0,0-6.2194,2.0856,8.15,8.15,0,0,0-2.0862,6.22V72.49c0,9.9025,2.9334,18.2312,8.4831,24.0868,5.6723,5.9844,13.8215,9.1479,23.5669,9.1479,9.7977,0,17.9828-3.1608,23.6705-9.1406,5.5646-5.85,8.5059-14.182,8.5059-24.0941V9.3578a8.15,8.15,0,0,0-2.0862-6.22,8.15,8.15,0,0,0-6.2194-2.0856Z" fill="#14463d"/><path d="M480.4075,52.2588c-.2075-.0553-.21-.058-.21-.2727,0-.0467,0-.0467.0447-.06,8.0158-2.3841,13.9164-10.0127,13.9164-21.3194,0-15.0191-9.35-23.7131-24.2307-23.7131H446.1723c-2.2856,0-2.4645.1789-2.4645,2.4644V96.3667c0,2.2855.1789,2.4644,2.4645,2.4644H458.367c2.2856,0,2.4645-.1789,2.4645-2.4644V62.8334c0-2.2855.1788-2.4645,2.4644-2.4645h3.3316c7.3831,0,10.4076,4.3471,10.4076,15.5425V96.3667c0,2.2855.1789,2.4644,2.4645,2.4644h12.1947c2.2856,0,2.4645-.1789,2.4645-2.4644V74.33C494.1588,61.394,489.4926,54.6756,480.4075,52.2588ZM466.363,44.5677h-3.0671c-2.2856,0-2.4644-.1787-2.4644-2.4645V23.4513c0-2.2856.1788-2.4645,2.4644-2.4645h3.0671c6.59,0,10.5456,3.6914,10.5456,11.46C476.9086,40.3529,472.8261,44.5677,466.363,44.5677Z" fill="#9bdfd0"/><path d="M469.9281,6.8935c14.8811,0,24.2307,8.6942,24.2307,23.7132,0,11.3065-5.9006,18.9351-13.9164,21.3193-.0446.0133-.0448.0133-.0448.06,0,.2145.0024.2172.21.2727,9.0851,2.4167,13.7513,9.1352,13.7513,22.071V96.3666c0,2.2856-.1789,2.4646-2.4644,2.4646H479.5c-2.2855,0-2.4644-.179-2.4644-2.4646V75.9112c0-11.1952-3.0245-15.5421-10.4076-15.5421h-3.3316c-2.2856,0-2.4644.1787-2.4644,2.4642V96.3666c0,2.2856-.1789,2.4646-2.4645,2.4646H446.1722c-2.2855,0-2.4644-.179-2.4644-2.4646V9.3578c0-2.2856.1789-2.4643,2.4644-2.4643h23.7559m-6.6322,37.6743h3.0671c6.4631,0,10.5456-4.215,10.5456-12.121,0-7.7687-3.956-11.46-10.5456-11.46h-3.0671c-2.2856,0-2.4644.1791-2.4644,2.4643V42.1032c0,2.2859.1788,2.4646,2.4644,2.4646m6.6322-43.5155H446.1722a8.1506,8.1506,0,0,0-6.2194,2.0856,8.15,8.15,0,0,0-2.0862,6.22V96.3666a7.3617,7.3617,0,0,0,8.3056,8.3059H458.367a7.3619,7.3619,0,0,0,8.3057-8.3059V66.21c2.4161.008,2.8518.6531,3.0866,1.0008.5357.7932,1.4346,2.9784,1.4346,8.7V96.3666a7.3618,7.3618,0,0,0,8.3056,8.3059h12.1949A7.3617,7.3617,0,0,0,500,96.3666V74.33c0-10.2072-2.746-17.7657-8.186-22.5962a25.0433,25.0433,0,0,0,3.2125-3.8217A30.4276,30.4276,0,0,0,500,30.6067c0-8.9383-2.8769-16.439-8.32-21.6917-5.33-5.1437-12.8516-7.8627-21.752-7.8627Zm-3.2554,37.6683V26.8324a4.7825,4.7825,0,0,1,3.2144,1.01c.7611.7952,1.18,2.43,1.18,4.6043,0,2.1454,0,6.0974-4.3947,6.2738Z" fill="#14463d"/></svg>