<svg xmlns="http://www.w3.org/2000/svg" viewBox="0 0 104.5762 93.2252"><path d="M30.2913,62.3132c17.8826,0,30.3718-12.8111,30.3718-31.1537C60.6631,12.8111,48.1739,0,30.2913,0,12.4546,0,0,12.8111,0,31.16,0,49.5021,12.4546,62.3132,30.2913,62.3132Zm0-46.3857c8.1191,0,13.57,6.1239,13.57,15.232,0,9.16-5.451,15.3124-13.57,15.3124-8.0731,0-13.5011-6.1527-13.5011-15.3124C16.79,22.0514,22.2182,15.9275,30.2913,15.9275Z" fill="#14463d"/><path d="M72.92,60.5394H83.9589c2.2855,0,2.4644-.1789,2.4644-2.4644V42.6134c0-2.2855.1789-2.4644,2.4644-2.4644h13.2241c2.2855,0,2.4644-.179,2.4644-2.4645V28.7106c0-2.2858-.1789-2.4645-2.4644-2.4645H88.8877c-2.2855,0-2.4644-.1789-2.4644-2.4644V17.74c0-2.2858.1789-2.4644,2.4644-2.4644h13.2241c2.2855,0,2.4644-.179,2.4644-2.4645V2.861c0-2.2855-.1789-2.4644-2.4644-2.4644H72.92c-2.2855,0-2.4644.1789-2.4644,2.4644V58.075C70.4554,60.3605,70.6343,60.5394,72.92,60.5394Z" fill="#14463d"/><path d="M35.6963,76.0152c-2.7945,2.6853-4.048,3.7778-7.107,3.7778s-4.3126-1.0925-7.1071-3.7778c-2.6271-2.5222-6.0138-5.7785-11.5892-7.0178C5.7335,68.0729,5.06,68.61,5.06,72.8711v5.7126c0,2.8084-.0193,2.7823,2.6227,3.7344,1.4653.5281,2.6388,1.6067,4.4844,3.38,3.312,3.18,7.8316,7.5269,16.4222,7.5269s13.11-4.347,16.4221-7.5269c2.7945-2.6853,4.0481-3.7776,7.1071-3.7776s4.324,1.0923,7.1186,3.7834c3.312,3.1741,7.843,7.5211,16.4451,7.5211s13.1331-4.347,16.4452-7.5211c1.8459-1.7775,3.0245-2.8577,4.4936-3.386,2.6455-.9516,2.6249-.9239,2.6249-3.7352v-5.712c0-4.2646-.6688-4.7982-4.832-3.8741-5.5793,1.2389-8.9719,4.4949-11.59,7.0126-2.8061,2.6911-4.0711,3.7836-7.1416,3.7836s-4.3355-1.0925-7.1416-3.7836c-3.3-3.1738-7.8315-7.5209-16.4221-7.5209S39.0084,72.8356,35.6963,76.0152Z" fill="#14463d"/></svg>