<svg xmlns="http://www.w3.org/2000/svg" viewBox="0 0 120 70.4999"><path d="M90.0012,59.3593c-5.685,0-8.2159-1.8454-11.7187-4.4C74.2876,52.0466,69.3156,48.4209,60,48.4209S45.7135,52.0466,41.7187,54.96c-3.5024,2.5542-6.0328,4.4-11.7171,4.4s-8.2161-1.8454-11.7189-4.4c-3.42-2.4939-7.5562-5.51-14.52-6.3264C.4,48.239,0,48.5911,0,51.9766V56.42c0,2.8148.1105,2.9374,2.8978,3.3293,3.7726.5306,5.9764,2.1374,8.8211,4.2117C15.7141,66.8743,20.6861,70.5,30.0016,70.5s14.2866-3.6256,18.2813-6.5388c3.5024-2.5541,6.0329-4.4,11.7171-4.4s8.2159,1.8455,11.7187,4.4C75.7139,66.8743,80.6857,70.5,90.0012,70.5s14.287-3.6256,18.2817-6.5388c3.5024-2.5541,6.0329-4.4,11.7171-4.4V48.4209c-9.3148,0-14.2865,3.6257-18.2813,6.5388C98.2163,57.5139,95.6857,59.3593,90.0012,59.3593Z"/><path d="M90.0012,35.1486c-5.685,0-8.2159-1.8454-11.7187-4.4C74.2876,27.8358,69.3156,24.2105,60,24.2105S45.7137,27.836,41.7187,30.7493c-3.5024,2.5539-6.0328,4.3993-11.7171,4.3993s-8.2161-1.8454-11.7189-4.4c-3.42-2.4939-7.5562-5.51-14.52-6.3263C.4,24.0287,0,24.3806,0,27.7661V32.21c0,2.8148.1105,2.9372,2.8978,3.3293,3.7729.5306,5.9764,2.1374,8.8211,4.2117,3.9952,2.913,8.9672,6.5385,18.2827,6.5385s14.2866-3.6255,18.2813-6.5387c3.5024-2.554,6.0329-4.3994,11.7171-4.3994s8.2159,1.8454,11.7187,4.4c3.9952,2.913,8.967,6.5385,18.2825,6.5385s14.287-3.6255,18.2817-6.5387c3.5024-2.554,6.0329-4.3994,11.7171-4.3994V24.2105c-9.3148,0-14.2865,3.6255-18.2813,6.5388C98.2163,33.3032,95.6857,35.1486,90.0012,35.1486Z"/><path d="M101.7187,6.5388c-3.5024,2.554-6.033,4.3994-11.7175,4.3994s-8.2159-1.8454-11.7187-4.4C74.2876,3.6254,69.3156,0,60,0S45.7137,3.6256,41.7187,6.5388c-3.5024,2.554-6.0328,4.3994-11.7171,4.3994s-8.2161-1.8454-11.7189-4.4c-3.42-2.494-7.5562-5.51-14.52-6.3262C.4-.1818,0,.17,0,3.5557V7.9992c0,2.8149.1105,2.9373,2.8978,3.3292,3.7729.5307,5.9764,2.1376,8.8211,4.2118,3.9952,2.9129,8.9672,6.5386,18.2827,6.5386S44.2882,18.4531,48.2829,15.54C51.7853,12.986,54.3158,11.1406,60,11.1406s8.2159,1.8454,11.7187,4.4c3.9952,2.9129,8.967,6.5386,18.2825,6.5386s14.287-3.6257,18.2817-6.5388c3.5024-2.554,6.0329-4.3994,11.7171-4.3994V0C110.6852,0,105.7135,3.6256,101.7187,6.5388Z"/></svg>